<?xml version="1.0" encoding="UTF-8"?>
<svg xmlns="http://www.w3.org/2000/svg" xmlns:xlink="http://www.w3.org/1999/xlink" viewBox="0 0 900 400">
  <defs>
    <style>
      .cls-1 {
        fill: #43b3f7;
      }

      .cls-2 {
        fill: url(#_Áåçûìÿííûé_ãðàäèåíò_176);
      }

      .cls-3 {
        fill: #000940;
      }

      .cls-4 {
        opacity: .16;
      }

      .cls-4, .cls-5, .cls-6, .cls-7, .cls-8 {
        mix-blend-mode: soft-light;
      }

      .cls-4, .cls-5, .cls-7 {
        fill: #7ef1f6;
      }

      .cls-9 {
        fill: url(#_Áåçûìÿííûé_ãðàäèåíò_133);
      }

      .cls-5 {
        opacity: .51;
      }

      .cls-10 {
        fill: #190024;
      }

      .cls-10, .cls-6, .cls-11 {
        opacity: .5;
      }

      .cls-10, .cls-11 {
        mix-blend-mode: multiply;
      }

      .cls-12 {
        isolation: isolate;
      }

      .cls-13 {
        fill: url(#_Áåçûìÿííûé_ãðàäèåíò_120-2);
      }

      .cls-14 {
        fill: url(#_Áåçûìÿííûé_ãðàäèåíò_120);
      }

      .cls-15 {
        fill: #040d4c;
      }

      .cls-6 {
        fill: #ffb;
      }

      .cls-16 {
        fill: url(#_Áåçûìÿííûé_ãðàäèåíò_208);
      }

      .cls-17 {
        fill: url(#_Áåçûìÿííûé_ãðàäèåíò_225-2);
      }

      .cls-17, .cls-18, .cls-19 {
        mix-blend-mode: screen;
      }

      .cls-20 {
        fill: url(#_Áåçûìÿííûé_ãðàäèåíò_205-2);
      }

      .cls-21 {
        fill: url(#_Áåçûìÿííûé_ãðàäèåíò_205-3);
      }

      .cls-18 {
        fill: url(#_Áåçûìÿííûé_ãðàäèåíò_225);
      }

      .cls-19 {
        fill: url(#_Áåçûìÿííûé_ãðàäèåíò_225-3);
      }

      .cls-22 {
        fill: #000931;
      }

      .cls-23 {
        clip-path: url(#clippath);
      }

      .cls-24 {
        fill: none;
      }

      .cls-25 {
        fill: url(#_Áåçûìÿííûé_ãðàäèåíò_205);
      }

      .cls-7, .cls-26 {
        opacity: .2;
      }

      .cls-27 {
        fill: url(#_Áåçûìÿííûé_ãðàäèåíò_112);
      }

      .cls-28 {
        fill: #0c1552;
      }

      .cls-29 {
        fill: #ffdede;
      }

      .cls-30 {
        fill: #1d52b1;
      }

      .cls-31 {
        fill: #43e0f7;
      }

      .cls-11 {
        fill: #3b40b9;
      }

      .cls-32 {
        fill: url(#_Áåçûìÿííûé_ãðàäèåíò_205-4);
      }

      .cls-33 {
        fill: #ff72a7;
      }

      .cls-26 {
        fill: #fff;
        mix-blend-mode: overlay;
      }

      .cls-8 {
        fill: #79a5b9;
      }

      .cls-34 {
        fill: #1d3490;
      }
    </style>
    <clipPath id="clippath">
      <rect class="cls-24" width="900" height="400"/>
    </clipPath>
    <linearGradient id="_Áåçûìÿííûé_ãðàäèåíò_176" data-name="Áåçûìÿííûé ãðàäèåíò 176" x1="450" y1="400" x2="450" y2="302.14" gradientUnits="userSpaceOnUse">
      <stop offset="0" stop-color="#0e002d"/>
      <stop offset="1" stop-color="#142187"/>
    </linearGradient>
    <linearGradient id="_Áåçûìÿííûé_ãðàäèåíò_120" data-name="Áåçûìÿííûé ãðàäèåíò 120" x1="359.67" y1="302.14" x2="359.67" y2="198" gradientUnits="userSpaceOnUse">
      <stop offset="0" stop-color="#081e77"/>
      <stop offset="1" stop-color="#120751"/>
    </linearGradient>
    <linearGradient id="_Áåçûìÿííûé_ãðàäèåíò_120-2" data-name="Áåçûìÿííûé ãðàäèåíò 120" x1="785.12" x2="785.12" xlink:href="#_Áåçûìÿííûé_ãðàäèåíò_120"/>
    <linearGradient id="_Áåçûìÿííûé_ãðàäèåíò_133" data-name="Áåçûìÿííûé ãðàäèåíò 133" x1="450" y1="302.14" x2="450" y2="287.33" gradientUnits="userSpaceOnUse">
      <stop offset="0" stop-color="#000856"/>
      <stop offset="1" stop-color="#022463"/>
    </linearGradient>
    <linearGradient id="_Áåçûìÿííûé_ãðàäèåíò_205" data-name="Áåçûìÿííûé ãðàäèåíò 205" x1="180.59" y1="373.03" x2="180.59" y2="356.28" gradientUnits="userSpaceOnUse">
      <stop offset="0" stop-color="#16003b"/>
      <stop offset="1" stop-color="#22279f"/>
    </linearGradient>
    <linearGradient id="_Áåçûìÿííûé_ãðàäèåíò_208" data-name="Áåçûìÿííûé ãðàäèåíò 208" x1="127.86" y1="368.1" x2="127.86" y2="239.97" gradientUnits="userSpaceOnUse">
      <stop offset="0" stop-color="#16003b"/>
      <stop offset="1" stop-color="#2242b8"/>
    </linearGradient>
    <linearGradient id="_Áåçûìÿííûé_ãðàäèåíò_205-2" data-name="Áåçûìÿííûé ãðàäèåíò 205" x1="163.36" y1="369.74" x2="163.36" y2="339.63" xlink:href="#_Áåçûìÿííûé_ãðàäèåíò_205"/>
    <radialGradient id="_Áåçûìÿííûé_ãðàäèåíò_225" data-name="Áåçûìÿííûé ãðàäèåíò 225" cx="127.83" cy="310.19" fx="127.83" fy="310.19" r="17.09" gradientTransform="translate(398.29 111.69) rotate(76.12)" gradientUnits="userSpaceOnUse">
      <stop offset="0" stop-color="#ff006a"/>
      <stop offset=".12" stop-color="#d00056"/>
      <stop offset=".3" stop-color="#92003c"/>
      <stop offset=".48" stop-color="#5d0027"/>
      <stop offset=".64" stop-color="#350016"/>
      <stop offset=".78" stop-color="#180009"/>
      <stop offset=".91" stop-color="#060002"/>
      <stop offset="1" stop-color="#000"/>
    </radialGradient>
    <radialGradient id="_Áåçûìÿííûé_ãðàäèåíò_225-2" data-name="Áåçûìÿííûé ãðàäèåíò 225" cx="159.37" cy="346.7" fx="159.37" fy="346.7" r="18.84" gradientTransform="matrix(1, 0, 0, 1, 0, 0)" xlink:href="#_Áåçûìÿííûé_ãðàäèåíò_225"/>
    <linearGradient id="_Áåçûìÿííûé_ãðàäèåíò_112" data-name="Áåçûìÿííûé ãðàäèåíò 112" x1="660.45" y1="356.32" x2="660.45" y2="236.4" gradientUnits="userSpaceOnUse">
      <stop offset="0" stop-color="#16003b"/>
      <stop offset="1" stop-color="#1b146d"/>
    </linearGradient>
    <linearGradient id="_Áåçûìÿííûé_ãðàäèåíò_205-3" data-name="Áåçûìÿííûé ãðàäèåíò 205" x1="748.47" y1="351.37" x2="748.47" y2="335.17" xlink:href="#_Áåçûìÿííûé_ãðàäèåíò_205"/>
    <linearGradient id="_Áåçûìÿííûé_ãðàäèåíò_205-4" data-name="Áåçûìÿííûé ãðàäèåíò 205" x1="519.22" y1="356.09" x2="519.22" y2="345.64" xlink:href="#_Áåçûìÿííûé_ãðàäèåíò_205"/>
    <radialGradient id="_Áåçûìÿííûé_ãðàäèåíò_225-3" data-name="Áåçûìÿííûé ãðàäèåíò 225" cx="627.48" cy="309.56" fx="627.48" fy="309.56" r="22.66" gradientTransform="matrix(1, 0, 0, 1, 0, 0)" xlink:href="#_Áåçûìÿííûé_ãðàäèåíò_225"/>
  </defs>
  <g class="cls-12">
    <g id="space">
      <g class="cls-23">
        <rect class="cls-2" y="302.14" width="900" height="97.86"/>
        <polygon class="cls-11" points="903.41 295.66 512.36 320.99 594.33 325.17 609.37 322.62 699.28 324.1 639.86 328.51 719.09 331.05 901.18 328.97 903.41 295.66"/>
        <polygon class="cls-8" points="341.77 300.51 414.01 308.53 346.02 310.99 415.44 314 449.64 314.17 460.01 312.48 497.02 313.67 439.34 317.65 419.98 318.45 437.62 321.66 453.38 322.98 480.6 322.33 586.48 324.94 539.86 320.71 529.87 319.36 566.01 317.51 593.93 316.4 608.44 315.58 643.36 313.35 649.2 306.74 642.4 301.98 341.77 300.51"/>
        <g>
          <path class="cls-28" d="M357.88,358.95h-.02c-.07,.08-.18,.15-.33,.22-2.83,1.38-8.62,5.19-24.39,3.89-6-.49-20.63-1.65-24.1-3.48h0c-.63-.33-.89-.66-.66-.95,1.54-1.99,20.33-2.74,23.67-2.56,3.33,.17,24.39,1.28,25.86,2.56,.12,.1,.1,.21-.02,.32Z"/>
          <path class="cls-3" d="M357.88,358.95h-.02s-.33,.22-.33,.22c0,0-17.91-3.06-27.91-2.48-9.8,.57-20.16,2.79-20.58,2.89h0c-.63-.33-.89-.66-.66-.95,1.54-1.99,20.33-2.74,23.67-2.56,3.33,.17,24.39,1.28,25.86,2.56,.12,.1,.1,.21-.02,.32Z"/>
        </g>
        <g>
          <polygon class="cls-14" points="144.96 276.86 148.86 273.94 148.86 276.86 148.86 278.94 152.75 278.94 159.16 282.28 173.08 273.94 177.81 273.94 180.88 278.11 189.51 278.11 197.3 255.58 200.64 255.58 204.54 238.34 209.69 237.99 212.62 199.69 214.7 199.69 216.79 244.74 220.13 245.85 220.13 257.81 227.93 259.48 233.5 272.82 238.23 273.1 238.23 254.75 246.86 236.95 246.86 232.22 255.21 232.57 255.21 234.73 260.5 240.98 265.52 266.15 268.02 267.26 268.02 271.99 271.36 275.6 271.36 279.5 280.55 295.63 283.61 295.63 314.52 300.36 330.66 302.14 273.68 302.14 275.63 292.57 284.81 289.79 287.6 283.11 291.5 281.17 295.95 262.81 299.01 255.03 301.24 250.91 303.75 247.8 309.04 248.07 309.04 240.29 313.49 234.17 313.49 239.73 318.78 239.73 318.78 199.69 322.4 198 322.89 216.43 323.79 216.93 323.79 230.55 326.58 231.39 326.58 260.59 330.75 262.53 330.75 271.71 333.26 272.27 333.26 279.22 336.88 280.33 341.06 289.79 360.27 299.52 364.73 302.14 372.52 299.52 378.37 293.68 380.32 293.12 380.32 287.01 382.27 283.39 382.27 276.44 386.44 268.37 390.06 275.05 392.85 273.1 398.41 271.43 398.41 260.59 411.78 249.94 414.01 255.3 417.07 253.91 420.41 261.98 429.04 263.93 429.04 273.94 431.83 275.05 433.77 280.89 440.46 283.11 448.53 295.91 452.15 297.57 452.15 288.12 456.88 284.5 460.78 270.04 465.79 266.71 467.74 256.69 471.64 246.41 471.64 272.82 475.54 275.6 477.77 287.01 481.11 288.12 481.11 225.55 481.11 222.77 485.56 210.53 490.29 206.64 490.29 216.93 493.08 216.93 496.7 234.17 506.3 249.94 506.3 254.89 506.3 264.9 510.48 269.49 518.42 278.25 518.42 288.68 529.27 288.68 533.87 297.44 539.72 297.44 550.99 291.6 554.75 279.92 554.75 267.4 557.67 263.65 557.67 257.39 560.6 256.56 563.1 249.94 563.1 226.52 571.04 208.17 574.38 302.14 148.3 302.14 144.96 276.86"/>
          <polygon class="cls-26" points="287.6 283.11 291.77 284.5 294.28 283.11 291.5 281.17 287.6 283.11"/>
          <polygon class="cls-26" points="309.04 240.29 309.04 243.07 323.79 240.39 313.49 239.73 313.49 235.14 313.49 234.17 309.04 240.29"/>
          <polygon class="cls-26" points="318.78 220.26 320.31 220.26 320.31 222.63 323.79 216.93 320.73 215.26 318.78 220.26"/>
          <polygon class="cls-26" points="326.58 260.59 321.29 263.09 320.17 265.73 325.6 265.73 330.75 262.53 326.58 260.59"/>
          <polygon class="cls-26" points="330.75 271.71 328.53 271.71 326.3 272.96 333.26 272.27 330.75 271.71"/>
          <polygon class="cls-26" points="333.26 279.22 330.75 280.33 322.4 281.17 331.73 281.17 336.88 280.33 333.26 279.22"/>
          <polygon class="cls-26" points="341.06 289.79 329.64 294.93 309.04 294.93 334.23 297.02 351.77 295.22 341.06 289.79"/>
          <polygon class="cls-26" points="276.56 292.29 281.61 292.29 292.05 292.29 297.06 292.29 284.81 289.79 276.56 292.29"/>
          <polygon class="cls-26" points="303.75 247.8 301.24 250.91 309.04 252.11 319.48 249.95 310.36 249.94 312.2 248.73 309.04 248.07 303.75 247.8"/>
          <polygon class="cls-26" points="180.88 278.11 196.33 282.84 209.69 280.47 189.51 278.11 180.88 278.11"/>
          <polygon class="cls-26" points="197.3 255.58 203.85 259.27 214.08 258.22 205.69 257.42 206.56 256.66 200.64 255.58 197.3 255.58"/>
          <polygon class="cls-26" points="216.79 244.74 214.08 245.4 209.69 246.13 220.13 245.85 216.79 244.74"/>
          <polygon class="cls-26" points="204.54 238.34 207.6 239.35 211.68 238.84 209.69 237.99 204.54 238.34"/>
          <polygon class="cls-26" points="220.13 257.81 215.85 258.38 220.13 259.27 227.93 259.48 220.13 257.81"/>
          <polygon class="cls-26" points="233.5 272.82 230.92 274.35 239.62 274.91 240.88 273.87 238.23 273.1 233.5 272.82"/>
          <polygon class="cls-26" points="212.62 199.69 212.19 205.25 214.7 199.69 212.62 199.69"/>
          <polygon class="cls-26" points="246.86 232.22 250.62 234.97 255.21 234.73 255.21 232.57 246.86 232.22"/>
          <polygon class="cls-26" points="246.86 236.95 248.11 239.35 244.56 249.05 246.34 248.32 240.88 254.78 238.23 254.75 246.86 236.95"/>
          <polygon class="cls-26" points="265.52 266.15 255.21 269.39 265.52 269.39 264.26 268.44 268.02 267.26 265.52 266.15"/>
          <polygon class="cls-26" points="268.02 271.99 263.78 274.28 271.36 275.6 268.02 271.99"/>
          <polygon class="cls-26" points="280.55 295.63 243.17 297.02 272.89 297.02 271.36 298.69 304.97 298.89 283.61 295.63 280.55 295.63"/>
          <polygon class="cls-26" points="219.3 289.79 225.98 289.79 224.31 291.04 235.9 292.29 208.11 292.95 219.3 289.79"/>
          <polygon class="cls-13" points="570.41 276.86 574.31 273.94 574.31 276.86 574.31 278.94 578.21 278.94 584.61 282.28 598.53 273.94 603.27 273.94 606.33 278.11 614.96 278.11 622.76 255.58 626.1 255.58 629.99 238.34 635.15 237.99 638.07 199.69 640.16 199.69 642.25 244.74 645.59 245.85 645.59 257.81 653.38 259.48 658.95 272.82 663.68 273.1 663.68 254.75 672.32 236.95 672.32 232.22 680.67 232.57 680.67 234.73 685.96 240.98 690.97 266.15 693.48 267.26 693.48 271.99 696.82 275.6 696.82 279.5 706 295.63 709.07 295.63 739.97 300.36 756.12 302.14 699.13 302.14 701.08 292.57 710.27 289.79 713.05 283.11 716.95 281.17 721.4 262.81 724.47 255.03 726.69 250.91 729.2 247.8 734.49 248.07 734.49 240.29 738.94 234.17 738.94 239.73 744.23 239.73 744.23 199.69 747.85 198 748.34 216.43 749.25 216.93 749.25 230.55 752.03 231.39 752.03 260.59 756.21 262.53 756.21 271.71 758.71 272.27 758.71 279.22 762.33 280.33 766.51 289.79 785.72 299.52 790.18 302.14 797.97 299.52 803.82 293.68 805.77 293.12 805.77 287.01 807.72 283.39 807.72 276.44 811.9 268.37 815.51 275.05 818.3 273.1 823.87 271.43 823.87 260.59 837.23 249.94 839.46 255.3 842.52 253.91 845.86 261.98 854.49 263.93 854.49 273.94 857.28 275.05 859.23 280.89 865.91 283.11 873.98 295.91 877.6 297.57 877.6 288.12 882.34 284.5 886.23 270.04 891.25 266.71 893.2 256.69 897.09 246.41 897.09 272.82 900.99 275.6 903.22 287.01 906.56 288.12 906.56 225.55 906.56 222.77 911.01 210.53 915.75 206.64 915.75 216.93 918.53 216.93 922.15 234.17 931.76 249.94 931.76 254.89 931.76 264.9 935.93 269.49 943.87 278.25 943.87 288.68 954.73 288.68 959.32 297.44 965.17 297.44 976.44 291.6 980.2 279.92 980.2 267.4 983.13 263.65 983.13 257.39 986.05 256.56 988.56 249.94 988.56 226.52 996.49 208.17 999.83 302.14 573.75 302.14 570.41 276.86"/>
          <polygon class="cls-26" points="606.33 278.11 621.78 282.84 635.15 280.47 614.96 278.11 606.33 278.11"/>
          <polygon class="cls-26" points="622.76 255.58 629.3 259.27 639.53 258.22 631.14 257.42 632.01 256.66 626.1 255.58 622.76 255.58"/>
          <polygon class="cls-26" points="642.25 244.74 639.53 245.4 635.15 246.13 645.59 245.85 642.25 244.74"/>
          <polygon class="cls-26" points="629.99 238.34 633.06 239.35 637.13 238.84 635.15 237.99 629.99 238.34"/>
          <polygon class="cls-26" points="645.59 257.81 641.31 258.38 645.59 259.27 653.38 259.48 645.59 257.81"/>
          <polygon class="cls-26" points="658.95 272.82 656.38 274.35 665.08 274.91 666.33 273.87 663.68 273.1 658.95 272.82"/>
          <polygon class="cls-26" points="672.32 232.22 676.07 234.97 680.67 234.73 680.67 232.57 672.32 232.22"/>
          <polygon class="cls-26" points="672.32 236.95 673.57 239.35 670.02 249.05 671.79 248.32 666.33 254.78 663.68 254.75 672.32 236.95"/>
          <polygon class="cls-26" points="706 295.63 668.63 297.02 698.35 297.02 696.82 298.69 730.42 298.89 709.07 295.63 706 295.63"/>
          <polygon class="cls-26" points="644.75 289.79 651.43 289.79 649.76 291.04 661.35 292.29 633.56 292.95 644.75 289.79"/>
          <polygon class="cls-26" points="299.01 269.39 305.83 271.71 312.31 270.55 299.01 269.39"/>
          <polygon class="cls-26" points="390.06 275.05 400.92 278.11 415.12 274.42 398.41 271.43 392.85 273.1 390.06 275.05"/>
          <polygon class="cls-26" points="398.41 260.59 412.23 260.59 409.93 258.95 414.01 255.3 411.78 249.94 398.41 260.59"/>
          <polygon class="cls-26" points="420.41 261.98 412.02 263.96 429.04 263.93 420.41 261.98"/>
          <polygon class="cls-26" points="386.44 268.37 382.27 276.44 387.9 273.76 386.44 268.37"/>
          <polygon class="cls-26" points="382.27 283.39 386.86 285.86 393.23 286.9 380.32 287.01 382.27 283.39"/>
          <polygon class="cls-26" points="406.21 297.02 426.95 295.98 420.53 297.96 406.21 297.02"/>
          <polygon class="cls-26" points="433.77 280.89 426.22 282.84 417.56 283.39 435.31 284.5 434.16 283.39 440.46 283.11 433.77 280.89"/>
          <polygon class="cls-26" points="431.83 275.05 424.34 274.77 429.04 273.94 431.83 275.05"/>
          <polygon class="cls-26" points="452.15 288.12 461.62 287.01 458.48 286.1 462.52 285.2 456.88 284.5 452.15 288.12"/>
          <polygon class="cls-26" points="506.3 264.9 512.15 274.77 513.13 275.05 518.42 278.25 506.3 264.9"/>
          <polygon class="cls-26" points="496.7 234.17 487.79 238.62 494.33 238.62 492.24 240.29 500.6 243.07 506.3 249.94 496.7 234.17"/>
          <polygon class="cls-26" points="471.64 272.82 467.88 275.05 475.54 275.6 471.64 272.82"/>
          <polygon class="cls-26" points="460.78 270.04 467.88 268.37 465.79 266.71 460.78 270.04"/>
          <polygon class="cls-26" points="485.56 210.53 481.11 222.77 487.79 216.65 485.84 216.65 485.56 210.53"/>
          <polygon class="cls-26" points="490.29 216.93 488.92 216.93 493.46 218.72 493.08 216.93 490.29 216.93"/>
          <polygon class="cls-26" points="484.45 278.11 504.84 278.25 497.05 281.17 491.19 280.89 484.45 278.11"/>
          <polygon class="cls-26" points="477.77 287.01 481.11 288.12 493.46 291.04 481.11 289.79 477.77 287.01"/>
          <polygon class="cls-26" points="518.42 288.68 507.97 291.04 525.72 292.29 529.27 288.68 518.42 288.68"/>
          <polygon class="cls-26" points="554.75 267.4 563.52 270.04 567.28 267.4 557.67 263.65 554.75 267.4"/>
          <polygon class="cls-26" points="554.75 279.92 561.01 292.29 557.88 291.04 550.99 291.6 554.75 279.92"/>
          <polygon class="cls-26" points="560.6 256.56 557.67 257.39 563.52 258.33 570.41 258.33 560.6 256.56"/>
          <polygon class="cls-26" points="563.1 226.52 570.41 222.04 568.32 222.04 571.04 208.17 563.1 226.52"/>
          <polygon class="cls-26" points="484.45 259.61 493.46 258.33 498.37 259.61 484.45 259.61"/>
          <polygon class="cls-26" points="378.37 293.68 386.77 295.98 390.06 294.83 380.32 293.12 378.37 293.68"/>
          <polygon class="cls-26" points="713.24 283.11 717.42 284.5 719.92 283.11 717.14 281.17 713.24 283.11"/>
          <polygon class="cls-26" points="734.68 240.29 734.68 243.07 749.44 240.39 739.14 239.73 739.14 235.14 739.14 234.17 734.68 240.29"/>
          <polygon class="cls-26" points="744.43 220.26 745.96 220.26 745.96 222.63 749.44 216.93 746.37 215.26 744.43 220.26"/>
          <polygon class="cls-26" points="752.22 260.59 746.93 263.09 745.82 265.73 751.25 265.73 756.4 262.53 752.22 260.59"/>
          <polygon class="cls-26" points="756.4 271.71 754.17 271.71 751.94 272.96 758.9 272.27 756.4 271.71"/>
          <polygon class="cls-26" points="758.9 279.22 756.4 280.33 748.05 281.17 757.37 281.17 762.52 280.33 758.9 279.22"/>
          <polygon class="cls-26" points="766.7 289.79 755.28 294.93 734.68 294.93 759.88 297.02 777.41 295.22 766.7 289.79"/>
          <polygon class="cls-26" points="702.2 292.29 707.26 292.29 717.7 292.29 722.71 292.29 710.46 289.79 702.2 292.29"/>
          <polygon class="cls-26" points="729.39 247.8 726.88 250.91 734.68 252.11 745.12 249.95 736 249.94 737.85 248.73 734.68 248.07 729.39 247.8"/>
          <polygon class="cls-26" points="706.2 295.63 668.82 297.02 698.54 297.02 697.01 298.69 730.61 298.89 709.26 295.63 706.2 295.63"/>
          <polygon class="cls-26" points="724.66 269.39 731.48 271.71 737.95 270.55 724.66 269.39"/>
          <polygon class="cls-26" points="815.71 275.05 826.57 278.11 840.76 274.42 824.06 271.43 818.49 273.1 815.71 275.05"/>
          <polygon class="cls-26" points="824.06 260.59 837.88 260.59 835.58 258.95 839.65 255.3 837.42 249.94 824.06 260.59"/>
          <polygon class="cls-26" points="846.05 261.98 837.67 263.96 854.69 263.93 846.05 261.98"/>
          <polygon class="cls-26" points="812.09 268.37 807.91 276.44 813.55 273.76 812.09 268.37"/>
          <polygon class="cls-26" points="807.91 283.39 812.5 285.86 818.87 286.9 805.96 287.01 807.91 283.39"/>
          <polygon class="cls-26" points="831.86 297.02 852.6 295.98 846.18 297.96 831.86 297.02"/>
          <polygon class="cls-26" points="859.42 280.89 851.87 282.84 843.2 283.39 860.95 284.5 859.8 283.39 866.1 283.11 859.42 280.89"/>
          <polygon class="cls-26" points="857.47 275.05 849.99 274.77 854.69 273.94 857.47 275.05"/>
          <polygon class="cls-26" points="877.8 288.12 887.26 287.01 884.13 286.1 888.17 285.2 882.53 284.5 877.8 288.12"/>
          <polygon class="cls-26" points="897.28 272.82 893.53 275.05 901.18 275.6 897.28 272.82"/>
          <polygon class="cls-26" points="886.43 270.04 893.53 268.37 891.44 266.71 886.43 270.04"/>
          <polygon class="cls-26" points="804.01 293.68 812.42 295.98 815.71 294.83 805.96 293.12 804.01 293.68"/>
          <polygon class="cls-1" points="550.99 291.6 554.75 279.92 554.75 267.4 557.67 263.65 557.67 257.39 560.6 256.56 563.1 249.94 563.1 226.52 571.04 208.17 565.09 225.68 565.09 250.29 562.57 256.91 565.09 258.01 563.1 258.97 559.29 257.65 557.77 265.5 559.23 268.75 556 268.35 555.69 281.78 550.99 291.6"/>
          <polygon class="cls-1" points="614.96 278.11 622.76 255.58 626.1 255.58 629.99 238.34 635.15 237.99 638.07 199.69 635.91 238.32 637.13 238.84 633.56 239.92 631.14 239.18 626.51 256.21 631.44 256.56 628.3 258.33 625.56 257.16 623.86 256.21 614.96 278.11"/>
          <polygon class="cls-1" points="663.73 271.71 663.68 254.75 672.32 236.95 672.32 232.22 673.57 232.64 673.57 237.83 664.91 254.37 663.73 271.71"/>
          <polygon class="cls-31" points="717.14 281.17 721.4 262.81 725.34 253.1 726.36 251.97 729.39 247.8 734.68 248.07 728.88 246.13 722.71 255.07 719.38 265.73 717.14 281.17"/>
          <polygon class="cls-1" points="490.29 206.64 488.45 211.96 486.44 211.41 482.71 222.24 481.27 278.5 481.09 221.61 485.56 210.53 490.29 206.64"/>
          <polygon class="cls-1" points="452.15 288.12 456.88 284.5 460.78 270.04 461.62 269.48 465.79 266.71 467.74 256.69 471.64 246.41 468.85 256.74 466.58 267.03 467.35 268.08 461.24 270.82 458.71 281.34 457.78 285.03 452.15 288.12"/>
          <polygon class="cls-1" points="429.04 263.93 420.52 263.1 420.41 261.98 429.04 263.93"/>
          <polygon class="cls-1" points="429.04 273.94 427.94 274.03 431.83 275.05 429.04 273.94"/>
          <polygon class="cls-1" points="417.07 253.91 413.64 254.41 411.78 249.94 398.41 260.59 398.41 271.43 399.44 261.12 411.06 252.33 414.01 255.3 417.07 253.91"/>
          <polygon class="cls-1" points="392.85 273.1 398.28 272.8 398.41 271.43 392.85 273.1"/>
          <polygon class="cls-1" points="386.44 268.37 382.27 276.44 382.27 283.39 380.32 287.01 380.32 293.12 381.08 287 384.21 283.88 382.88 276.15 386.89 274.24 386.44 268.37"/>
          <polygon class="cls-1" points="341.06 289.79 336.88 280.33 333.26 279.22 333.26 272.27 331.41 270.95 330.75 262.53 326.58 260.59 326.58 231.39 325.46 261.69 328.78 263.76 328.53 271.71 326.3 272.96 330.75 272.91 331.71 272.91 331.71 280 330.75 280.33 323.69 280.75 331.73 281.17 335.08 280.62 341.06 289.79"/>
          <polygon class="cls-1" points="322.88 215.92 320.31 220.26 322.56 218.94 322.94 230.68 324.43 232.92 326.45 234.92 326.58 231.98 326.58 231.39 323.79 230.55 323.79 216.93 322.88 215.92"/>
          <polygon class="cls-1" points="321.22 198.36 322.88 215.92 322.4 198 321.22 198.36"/>
          <polygon class="cls-1" points="250.2 232.55 252.38 235.54 260.5 240.98 264.38 266.15 261.62 267.38 254.56 269.39 264.26 268.44 268.02 267.26 265.43 265.73 261.62 240.31 255.81 234.17 255.21 232.57 250.2 232.55"/>
          <polygon class="cls-1" points="268.02 271.99 265.18 273.53 271.36 275.6 268.02 271.99"/>
          <polygon class="cls-1" points="216.79 244.74 214.08 245.4 220.13 245.85 216.79 244.74"/>
          <polygon class="cls-1" points="212.62 199.69 216.6 240.57 214.7 199.69 212.62 199.69"/>
        </g>
        <g>
          <polygon class="cls-9" points="0 302.14 800 302.14 900 302.14 856.01 299.79 834.76 297.54 831.92 293.78 800 288.83 769.33 297.12 757.33 300 729.67 300 712.9 300 697.6 296 662.09 297.12 654.33 300 637.33 297.12 624.17 293.04 602.43 296 602.43 300 586.87 300 547.67 300 537.5 287.33 526.83 288.83 524.17 291.33 520.5 291.67 518.5 293.67 512.16 296 504.17 300 459.17 300 446.17 300 434.67 300 425.5 298.25 387.5 294.75 373.75 297.12 326.44 300 310 298.25 298.74 298.25 279.26 298.25 267.17 300 249.5 300 223.3 294.33 218.68 295.36 191.27 296 128.01 300.33 109.75 291.03 83.67 291.33 79.69 293.65 36.45 296.61 11.67 290.68 0 288.62 0 302.14"/>
          <polygon class="cls-6" points="606.38 297.7 624.17 299.08 630.62 296 624.17 293.04 602.43 296 606.38 297.7"/>
          <polygon class="cls-6" points="662.09 297.12 679 299.08 693.83 297.7 697.6 296 662.09 297.12"/>
          <polygon class="cls-6" points="526.83 288.83 534.5 290.58 539.35 289.64 537.5 287.33 526.83 288.83"/>
          <polygon class="cls-6" points="520.5 291.67 524.67 293.91 528.33 292.79 530.67 292.57 524.17 291.33 520.5 291.67"/>
          <polygon class="cls-6" points="387.5 294.75 388.67 299.68 406.52 300.56 409.83 298.73 425.5 298.25 387.5 294.75"/>
        </g>
        <polygon class="cls-11" points="362.73 333.22 243.58 345.09 151.55 347.04 694.83 350.41 352.28 361.74 287.62 350.41 268.98 351.07 252.9 351.07 186.01 357.68 162.96 362.12 237.31 365.57 483.32 385 704.55 400 0 400 0 325.67 362.73 333.22"/>
        <g>
          <g>
            <polygon class="cls-25" points="179.81 363.24 183.39 363.24 190.53 365.86 201.78 367.73 215.45 365.49 282.41 368.1 148.1 373.03 89.28 369.74 91.2 367.73 78.78 365.72 95.08 356.28 102.52 358.78 179.81 363.24"/>
            <polygon class="cls-10" points="154.23 369.74 142.86 370.28 148.1 373.03 89.28 369.74 91.2 367.73 91.2 367.73 78.78 365.72 99.43 362.05 113.85 367.84 145.74 367.08 154.23 369.74"/>
            <g>
              <path class="cls-16" d="M164.52,366.2s-45.26,2.24-49.38,1.86c-4.12-.37-15.71-6.02-15.71-6.02l-8.23-78.9,4.11-3.19v-26.42l.11-.16c.68-.95,4.6-6.42,10.37-13.41l5.61,10.63,.88,.22c2.96,.8,12.95,3.62,21.64,7.95,.22,.11,.45,.22,.67,.34l6.2,36.8,.9,1.12,3,21.99,2.63,.42,17.2,46.77Z"/>
              <polygon class="cls-10" points="95.31 253.54 95.31 279.97 106.93 288.18 108.69 288.42 104.34 264.61 102 257.28 95.31 253.54"/>
              <polygon class="cls-10" points="91.2 283.15 95.31 288.71 97.74 289.69 96.76 291.64 100.83 292.91 104.34 343.56 105.46 344.26 105.46 349.21 108.69 351.63 113.85 367.84 99.43 362.05 91.2 283.15"/>
              <polygon class="cls-10" points="122.43 314.08 122.43 318.78 125.52 322.93 130.2 367.73 127.86 365.86 119.91 331.91 117.94 330.51 116.12 299.51 118.79 307.5 122.43 314.08"/>
              <path class="cls-7" d="M133.91,258.77h-11.07l-8.72-3.24-3.67,1.75h-8.45l-6.7-3.74,.11-.16,10.37-13.41,5.61,10.63,.88,.22c2.96,.8,12.95,3.62,21.64,7.95Z"/>
              <polygon class="cls-5" points="95.31 279.97 91.2 283.15 95.31 288.71 97.74 289.69 96.76 291.64 100.83 292.91 120.05 291.64 106.93 288.18 95.31 279.97"/>
              <path class="cls-5" d="M122.43,314.08s3.69,2.82,5.42,2.82,10.29-1.44,11.55-2.82c1.26-1.39-7.53-7.46-11.55-10.04-4.02-2.57-11.74-4.54-11.74-4.54l1.51,4.54,1.15,3.46,3.65,6.58Z"/>
              <polygon class="cls-10" points="114.13 255.53 114.61 268.13 115.42 268.13 117.94 281.88 118.69 262.24 120.05 263.08 122.85 258.77 114.13 255.53"/>
              <polygon class="cls-5" points="144.69 319.02 143.38 322.37 140.39 326.21 144.6 324.99 147.31 319.43 144.69 319.02"/>
              <path class="cls-33" d="M118.49,302.03s2.4,6.47,3.66,9.61c1.26,3.14,4.07,3.93,6.38,4.14,2.31,.21,7.96-.75,8.77-2.43s-11.82-11.67-18.82-11.32Z"/>
              <path class="cls-29" d="M120.4,307.11s5.03,1.33,7.46,3.1c2.43,1.78,4.75,5.24,4.75,5.24,0,0-5.21,1.12-8.14-.93-2.93-2.05-4.07-7.41-4.07-7.41Z"/>
              <path class="cls-4" d="M139.41,314.08l2.28,27.79-1.14,4.77-.16,12.63-10.19,6.45-4.68-42.79-3.09-4.15v-4.7s4.12,2.68,5.42,2.82c1.31,.14,8.74-.46,11.55-2.82Z"/>
              <polygon class="cls-4" points="108.69 351.63 122.85 344.47 127.86 365.86 113.85 365.86 108.69 351.63"/>
              <polygon class="cls-4" points="144.6 324.99 153.95 349.21 155.06 347.9 157.22 352.49 160.46 355.17 147.31 319.43 144.6 324.99"/>
              <path class="cls-20" d="M145.74,367.08v-27.18s19.06-2.77,28.23,9.31l2.24,7.4,2.06,.75,2.71,10.38s-22.39,2.34-25.92,1.97-9.32-2.62-9.32-2.62Z"/>
              <path class="cls-33" d="M172.29,350.43c-.13,.3-.66,.73-1.49,1.14-2.04,1.04-5.91,2.02-10.34,.82-3.13-.84-7.06-3.6-9.88-6.16h0c-2.78-2.53-4.48-4.85-3.27-4.97,17.59-1.77,25.43,8.14,24.97,9.17Z"/>
              <path class="cls-29" d="M170.79,351.57c-2.04,1.04-5.91,2.02-10.34,.82-3.13-.84-7.06-3.6-9.88-6.16h0s8.61-.38,13.94,1.76c2.95,1.19,5.02,2.58,6.27,3.58Z"/>
              <path class="cls-10" d="M145.74,339.9v27.18l8.49,2.66v-5.46l-1.12-.47-.58-9.12-1.1-3.05-2.62-5.44s-1.89-.63-3.07-6.3Z"/>
              <polygon class="cls-5" points="178.27 357.35 170.79 360.95 162.59 360.95 170.35 359.15 176.21 356.6 178.27 357.35"/>
              <polygon class="cls-30" points="98.96 292.33 100.99 295.24 102 292.83 98.96 292.33"/>
              <polygon class="cls-30" points="122.03 313.35 122.43 315.81 122.85 314.58 122.03 313.35"/>
              <polygon class="cls-30" points="142.86 325.49 145.24 326.65 144.6 324.99 142.86 325.49"/>
              <polygon class="cls-10" points="172.3 362.21 165.17 364.27 170.79 364.27 172.3 362.21"/>
              <polygon class="cls-10" points="131.32 341.92 133.28 345.1 131.32 343.09 131.32 341.92"/>
              <polygon class="cls-10" points="111.91 326.21 110.23 331.49 111.91 328.85 111.91 326.21"/>
              <polygon class="cls-34" points="165.17 364.27 170.43 363.76 172.3 362.21 170.79 364.27 165.17 364.27"/>
              <polygon class="cls-34" points="131.32 341.92 131.86 343.35 133.28 345.1 131.32 343.3 131.32 341.92"/>
              <polygon class="cls-34" points="111.91 326.21 111.91 328.85 110.23 331.49 112.43 329.25 111.91 326.21"/>
              <polygon class="cls-4" points="122.85 258.77 120.05 263.08 117.94 281.88 133.49 292.68 135.47 292.68 140.68 295.24 134.59 259.11 122.85 258.77"/>
              <polygon class="cls-10" points="140.39 292.91 139.53 294.67 135.47 292.68 133.33 292.33 119.77 283.15 133.33 292.91 135.43 293.33 140.79 295.91 140.39 292.91"/>
              <polygon class="cls-34" points="133.33 292.91 135.48 293.74 139.53 296.23 141.69 297.03 140.79 295.91 135.43 293.33 133.33 292.91"/>
              <polygon class="cls-10" points="97.74 289.69 110.35 292.28 110.23 298.24 108.69 298.87 104.48 317.74 109.04 299.19 110.89 298.52 110.67 292.91 111.25 292.22 97.74 289.69"/>
              <polygon class="cls-4" points="102 292.83 100.99 295.24 102.73 320.32 104.49 318.58 108.69 298.87 110.23 298.24 110.35 292.28 102 292.83"/>
              <polygon class="cls-34" points="110.89 298.52 110.46 299.2 109.43 299.51 108.61 300.92 109.04 299.19 110.89 298.52"/>
            </g>
          </g>
          <circle class="cls-18" cx="127.83" cy="310.19" r="17.09" transform="translate(-203.97 359.87) rotate(-76.12)"/>
          <circle class="cls-17" cx="159.37" cy="346.7" r="18.84"/>
        </g>
        <g>
          <g>
            <path class="cls-27" d="M575.77,353.36l39.07,2.96,31.63-1.43-15.99-2.4,18.4-1.6h96.24l-36.97-3.11-7.44-8.54-13.19-2.75-6.44-1.42-10.12-1.96,4.51-46.09-1.06-3.28v-31.73l-15.66-15.6-5.12,14.88-10.27,8.37-9.2,40.86s-14.71,3.68-23.15,13.5v21.17s-3.99,4.06-3.99,4.06l-2.61,8.97-5.53,1.3-23.11,3.85Z"/>
            <polygon class="cls-10" points="611 314 615.51 320.08 615.51 326.51 620.87 328.74 620.87 349.09 612.25 345.04 611 335.17 611 314"/>
            <polygon class="cls-10" points="604.4 348.2 611 353.81 579.71 353.65 604.4 348.2"/>
            <polygon class="cls-10" points="634.16 300.51 644.84 305.01 647.76 336.93 650.45 288.93 650.45 265.21 643.36 259.65 634.16 300.51"/>
            <polygon class="cls-10" points="653.63 251.28 657.03 252.29 655.33 280.24 660.45 251.23 655.79 245.02 653.63 251.28"/>
            <path class="cls-5" d="M615.51,320.08s4.47,.83,13.37-1.61c8.9-2.44,15.97-13.46,15.97-13.46l-10.68-4.5s-11.65,1.72-23.15,13.5l4.5,6.07Z"/>
            <polygon class="cls-5" points="607.01 339.24 609.37 343.82 612.25 345.04 611 335.17 607.01 339.24"/>
            <polygon class="cls-5" points="650.45 265.21 653.63 262.63 653.63 260.94 657.03 252.29 653.63 251.28 643.36 259.65 650.45 265.21"/>
            <polygon class="cls-5" points="655.79 245.02 660.45 251.23 666.92 252.29 667.75 251.28 669.2 251.28 674.42 252 658.76 236.4 655.79 245.02"/>
            <polygon class="cls-5" points="674.56 284.46 670.68 289.06 659.32 290.52 655.79 293.55 660.45 291.98 671.47 291.98 671.47 295.47 675.48 287.01 674.56 284.46"/>
            <polygon class="cls-5" points="670.96 333.1 652.07 340.11 669.2 341.54 669.2 342.84 680.51 342.84 702.45 342.84 700.72 339.24 670.96 333.1"/>
            <polygon class="cls-10" points="652.07 340.11 652.07 346.26 653.63 346.26 652.85 350.88 666.92 351.2 669.2 342.84 669.2 341.54 652.07 340.11"/>
            <path class="cls-33" d="M640.69,305.31s-1.93,6.8-7.88,10.24c-5.95,3.44-16.09,2.93-16.09,2.93,0,0-3.11-1.78-3.01-4.46,.1-2.69,15.28-10.4,18.36-10.81,3.09-.41,8.61,2.11,8.61,2.11Z"/>
            <path class="cls-29" d="M617.7,318.49s3.17-4.43,9.51-7.67,12-2.09,12-2.09c0,0-1.14,3.54-6.4,6.81-5.26,3.27-15.12,2.95-15.12,2.95Z"/>
            <polygon class="cls-4" points="620.87 328.74 636.79 325.72 646.45 322.57 647.76 336.93 628.45 345.04 622.01 340.11 620.87 328.74"/>
            <polygon class="cls-4" points="666.92 252.29 665.63 267.6 660.45 274.43 655.79 278.98 660.45 251.23 666.92 252.29"/>
            <polygon class="cls-10" points="674.42 274.67 670.76 276.7 663.58 289.97 660.45 291.98 654.75 305.31 653.13 305.63 648.71 320.07 653.63 306.04 656.12 305.62 660.93 292.22 665.1 289.77 671.47 277.19 674.42 276.06 674.42 274.67"/>
            <polygon class="cls-34" points="660.93 292.22 656.66 306.1 655.79 306.1 653.63 306.04 656.12 305.62 660.93 292.22"/>
            <polygon class="cls-34" points="671.47 277.19 672.49 277.4 674.42 276.7 674.42 276.06 671.47 277.19"/>
            <polygon class="cls-30" points="670.84 291.98 672.95 291.41 671.47 295.47 670.84 291.98"/>
            <polygon class="cls-30" points="649.2 264.24 650.45 266.57 651.65 264.24 649.2 264.24"/>
            <polygon class="cls-30" points="614.34 318.5 615.51 321.64 616.56 320.18 614.34 318.5"/>
            <polygon class="cls-30" points="667.87 341.43 668.8 344.29 670.84 342.86 669.2 341.54 667.87 341.43"/>
            <polygon class="cls-10" points="640.34 322.54 638.69 327.69 640.34 325.11 640.34 322.54"/>
            <polygon class="cls-34" points="640.34 322.54 640.34 325.11 638.69 327.69 640.84 325.5 640.34 322.54"/>
            <polygon class="cls-10" points="652.81 294.12 648.2 291.3 650.31 293.51 652.81 294.12"/>
            <polygon class="cls-34" points="652.81 294.12 650.31 293.51 648.2 291.3 649.81 293.9 652.81 294.12"/>
            <path class="cls-21" d="M767.79,351.37l-9.13-.29-29.33-.94h-.19s.17-.34,.46-.91t0-.02c1.68-3.18,7.28-13.54,9.75-14.03,.1,0,.19,0,.27,0,2.71,.36,20.01,6.96,21.23,8.17,1.23,1.21,6.93,8.02,6.93,8.02Z"/>
            <path class="cls-32" d="M541.07,354.3l-14.05,.56s-8.81,.73-14.28,1.06h0c-2.3,.15-4.02,.21-4.21,.13-.66-.28-9.8-1.59-11.14-1.91,0,0,7.04-4.97,10.98-7.3,1.17-.69,2.07-1.15,2.43-1.18,1.59-.13,12.19,.6,13.59,1.09,.56,.19,1.09,1.31,1.54,2.56,.66,1.88,1.11,4.1,1.11,4.1l14.05,.9Z"/>
            <path class="cls-10" d="M512.72,355.92c-2.3,.15-4.02,.21-4.21,.13-.66-.28-9.8-1.59-11.14-1.91,0,0,7.04-4.97,10.98-7.3l2.43-1.18-1.14,4.25,1.14,.79-.57,2.75,2.52,2.48Z"/>
            <path class="cls-10" d="M758.66,351.07l-29.52-.19s.07-.27,.19-.75c.08-.25,.17-.56,.26-.91t0-.02c1.68-3.18,7.28-13.54,9.75-14.03,.1,0,.19,0,.27,0l-3.22,7.67,6.74,2.19,.73,2.27,14.78,3.76Z"/>
            <path class="cls-5" d="M760.86,343.34s-1.53,1.29-7.55,.96c-6.02-.34-16.9-1.45-16.9-1.45l3.22-7.67c2.71,.36,20.01,6.96,21.23,8.17Z"/>
            <path class="cls-5" d="M525.9,349.31c-5.38,.8-16.27,.59-16.27,.59l1.14-4.25c1.59-.13,12.19,.6,13.59,1.09,.56,.19,1.09,1.31,1.54,2.56Z"/>
          </g>
          <circle class="cls-19" cx="627.48" cy="309.56" r="22.66"/>
        </g>
        <g>
          <path class="cls-15" d="M603.88,370.77l-.02,.03c-.07,.13-.18,.26-.33,.38-2.83,2.55-18.2,6.34-24.39,7.21-6,.84-20.63-3.05-24.1-6.45h0c-.63-.61-.89-1.22-.66-1.77,1.54-3.69,20.33-5.08,23.67-4.75,3.33,.32,24.39,2.37,25.86,4.75,.12,.19,.1,.4-.02,.6Z"/>
          <path class="cls-22" d="M603.88,370.77l-.02,.03-.33,.38s-17.2-4.41-27.2-3.34c-9.8,1.05-20.87,3.92-21.29,4.1h0c-.63-.61-.89-1.22-.66-1.77,1.54-3.69,20.33-5.08,23.67-4.75,3.33,.32,24.39,2.37,25.86,4.75,.12,.19,.1,.4-.02,.6Z"/>
        </g>
        <g>
          <path class="cls-15" d="M57.72,375.28l-.02,.03c-.07,.13-.18,.26-.33,.38-2.83,2.55-18.2,6.34-24.39,7.21-6,.84-20.63-3.05-24.1-6.45h-.01c-.63-.61-.89-1.22-.66-1.77,1.54-3.69,20.33-5.08,23.67-4.75,3.33,.32,24.39,2.37,25.86,4.75,.12,.19,.1,.4-.02,.6Z"/>
          <path class="cls-22" d="M57.72,375.28l-.02,.03-.33,.38s-17.2-4.41-27.2-3.34c-9.8,1.05-20.87,3.92-21.29,4.1h-.01c-.63-.61-.89-1.22-.66-1.77,1.54-3.69,20.33-5.08,23.67-4.75,3.33,.32,24.39,2.37,25.86,4.75,.12,.19,.1,.4-.02,.6Z"/>
        </g>
        <g>
          <path class="cls-28" d="M593.43,319.06s-.06,.09-.09,.14c-.22,.29-.59,.57-1.07,.85-3.21,1.84-11.46,3.25-13,3.52-4.72,.86-12.95-1.38-15.7-3.1-.9-.57-1.21-1.08-.64-1.41,2.34-1.36,31.84-2.32,30.5,0Z"/>
          <path class="cls-3" d="M593.43,319.06s-.06,.09-.09,.14l-1.07,.85s-1.92-1.56-2.55-1.56-12.81-.75-17.31,0c-4.49,.75-8.8,1.99-8.8,1.99h-.04c-.9-.58-1.21-1.09-.64-1.42,2.34-1.36,31.84-2.32,30.5,0Z"/>
        </g>
        <g>
          <path class="cls-28" d="M507.52,304.96s-.06,.05-.09,.07c-.22,.15-.59,.28-1.07,.42-3.21,.92-11.46,1.62-13,1.76-4.72,.43-12.95-.69-15.7-1.55-.9-.28-1.21-.54-.64-.7,2.34-.68,31.84-1.16,30.5,0Z"/>
          <path class="cls-3" d="M507.52,304.96s-.06,.05-.09,.07l-1.07,.42s-1.92-.78-2.55-.78-12.81-.38-17.31,0c-4.49,.38-8.8,.99-8.8,.99h-.04c-.9-.29-1.21-.55-.64-.71,2.34-.68,31.84-1.16,30.5,0Z"/>
        </g>
        <g>
          <path class="cls-28" d="M632.18,366.56c-.94,.4-3,.66-3.76,.65-.68,0-2.66-.3-3.74-.72h-.04c-.67-.28-.97-.59-.35-.92,1.02-.54,7.2-.47,8.21,.31,.32,.25,.13,.48-.32,.68Z"/>
          <path class="cls-3" d="M632.18,366.56c-.66-.15-1.41-.28-2.2-.34-2.45-.21-5.3,.28-5.3,.28h-.04c-.67-.28-.97-.59-.35-.92,1.02-.54,7.2-.47,8.21,.31,.32,.25,.13,.48-.32,.68Z"/>
        </g>
        <g>
          <path class="cls-28" d="M572.47,306.84c-.94,.4-3,.66-3.76,.65-.68,0-2.66-.3-3.74-.72h-.04c-.67-.28-.97-.59-.35-.92,1.02-.54,7.2-.47,8.21,.31,.32,.25,.13,.48-.32,.68Z"/>
          <path class="cls-3" d="M572.47,306.84c-.66-.15-1.41-.27-2.2-.34-2.45-.21-5.3,.27-5.3,.27h-.04c-.67-.28-.97-.59-.35-.92,1.02-.54,7.2-.47,8.21,.31,.32,.25,.13,.48-.32,.68Z"/>
        </g>
        <g>
          <path class="cls-28" d="M394.95,303.32c-.94,.4-3,.66-3.76,.65-.68,0-2.66-.3-3.74-.72h-.04c-.67-.28-.97-.59-.35-.92,1.02-.54,7.2-.47,8.21,.31,.32,.25,.13,.48-.32,.68Z"/>
          <path class="cls-3" d="M394.95,303.32c-.66-.15-1.41-.28-2.2-.34-2.45-.21-5.3,.28-5.3,.28h-.04c-.67-.28-.97-.59-.35-.92,1.02-.54,7.2-.47,8.21,.31,.32,.25,.13,.48-.32,.68Z"/>
        </g>
        <g>
          <path class="cls-28" d="M442.54,305.84c-.94,.4-3,.66-3.76,.65-.68,0-2.66-.3-3.74-.72h-.04c-.67-.28-.97-.59-.35-.92,1.02-.54,7.2-.47,8.21,.31,.32,.25,.13,.48-.32,.68Z"/>
          <path class="cls-3" d="M442.54,305.84c-.66-.15-1.41-.27-2.2-.34-2.45-.21-5.3,.27-5.3,.27h-.04c-.67-.28-.97-.59-.35-.92,1.02-.54,7.2-.47,8.21,.31,.32,.25,.13,.48-.32,.68Z"/>
        </g>
        <g>
          <path class="cls-15" d="M549.15,369.65c-2.75,1.18-8.79,1.93-11.02,1.91-1.99-.02-7.79-.88-10.96-2.1l-.12-.04c-1.96-.79-2.84-1.71-1.03-2.66,2.99-1.57,21.09-1.39,24.05,.9,.94,.73,.38,1.41-.94,1.99Z"/>
          <path class="cls-22" d="M549.15,369.65c-1.93-.43-4.13-.81-6.45-.99-7.18-.62-15.53,.81-15.53,.81l-.12-.04c-1.96-.79-2.84-1.71-1.03-2.66,2.99-1.57,21.09-1.39,24.05,.9,.94,.73,.38,1.41-.94,1.99Z"/>
        </g>
        <g>
          <path class="cls-15" d="M148.86,381.52c-2.75,1.18-8.79,1.93-11.02,1.91-1.99-.02-7.79-.88-10.96-2.1l-.12-.04c-1.96-.79-2.84-1.71-1.03-2.66,2.99-1.57,21.09-1.39,24.05,.9,.94,.73,.38,1.41-.94,1.99Z"/>
          <path class="cls-22" d="M148.86,381.52c-1.93-.43-4.13-.81-6.45-.99-7.18-.62-15.53,.81-15.53,.81l-.12-.04c-1.96-.79-2.84-1.71-1.03-2.66,2.99-1.57,21.09-1.39,24.05,.9,.94,.73,.38,1.41-.94,1.99Z"/>
        </g>
        <g>
          <path class="cls-28" d="M467.12,324.15c-.94,.63-3,1.03-3.76,1.02-.68,0-2.66-.47-3.74-1.12l-.04-.02c-.67-.42-.97-.91-.35-1.42,1.02-.84,7.2-.74,8.21,.48,.32,.39,.13,.75-.32,1.06Z"/>
          <path class="cls-3" d="M467.12,324.15c-.66-.23-1.41-.43-2.2-.53-2.45-.33-5.3,.43-5.3,.43l-.04-.02c-.67-.42-.97-.91-.35-1.42,1.02-.84,7.2-.74,8.21,.48,.32,.39,.13,.75-.32,1.06Z"/>
        </g>
      </g>
    </g>
  </g>
</svg>