<?xml version="1.0" encoding="UTF-8"?>
<svg xmlns="http://www.w3.org/2000/svg" xmlns:xlink="http://www.w3.org/1999/xlink" viewBox="0 0 900 400">
  <defs>
    <style>
      .cls-1 {
        fill: url(#radial-gradient-3);
      }

      .cls-1, .cls-2, .cls-3, .cls-4 {
        mix-blend-mode: screen;
      }

      .cls-2 {
        fill: url(#radial-gradient);
      }

      .cls-5 {
        opacity: .16;
      }

      .cls-5, .cls-6, .cls-7 {
        mix-blend-mode: soft-light;
      }

      .cls-5, .cls-7, .cls-8 {
        fill: #5fcccc;
      }

      .cls-9, .cls-10 {
        opacity: .5;
      }

      .cls-11 {
        fill: url(#_Áåçûìÿííûé_ãðàäèåíò_202-2);
      }

      .cls-10, .cls-12 {
        fill: #190024;
        mix-blend-mode: multiply;
      }

      .cls-13 {
        isolation: isolate;
      }

      .cls-14 {
        fill: #1d1d7a;
      }

      .cls-15 {
        fill: url(#_Áåçûìÿííûé_ãðàäèåíò_202-4);
      }

      .cls-16 {
        fill: url(#_Áåçûìÿííûé_ãðàäèåíò_202);
      }

      .cls-3 {
        fill: url(#_Áåçûìÿííûé_ãðàäèåíò_225);
      }

      .cls-17 {
        clip-path: url(#clippath);
      }

      .cls-18 {
        fill: #1d46c5;
      }

      .cls-6, .cls-7 {
        opacity: .51;
      }

      .cls-12 {
        opacity: .15;
      }

      .cls-19 {
        fill: none;
      }

      .cls-4 {
        fill: url(#radial-gradient-2);
      }

      .cls-20 {
        fill: #ffdede;
      }

      .cls-21 {
        fill: #ff72a7;
      }

      .cls-22 {
        fill: #fff;
        mix-blend-mode: overlay;
        opacity: .2;
      }

      .cls-23 {
        fill: url(#_Áåçûìÿííûé_ãðàäèåíò_202-3);
      }

      .cls-24 {
        fill: #1d3490;
      }
    </style>
    <clipPath id="clippath">
      <rect class="cls-19" width="900" height="400"/>
    </clipPath>
    <linearGradient id="_Áåçûìÿííûé_ãðàäèåíò_202" data-name="Áåçûìÿííûé ãðàäèåíò 202" x1="246.28" y1="349.97" x2="246.28" y2="107.88" gradientUnits="userSpaceOnUse">
      <stop offset="0" stop-color="#16003b"/>
      <stop offset="1" stop-color="#221b8c"/>
    </linearGradient>
    <linearGradient id="_Áåçûìÿííûé_ãðàäèåíò_202-2" data-name="Áåçûìÿííûé ãðàäèåíò 202" x1="235.75" y1="294.75" x2="235.75" y2="271.33" xlink:href="#_Áåçûìÿííûé_ãðàäèåíò_202"/>
    <linearGradient id="_Áåçûìÿííûé_ãðàäèåíò_202-3" data-name="Áåçûìÿííûé ãðàäèåíò 202" x1="286.21" y1="338.52" x2="286.21" y2="287.23" xlink:href="#_Áåçûìÿííûé_ãðàäèåíò_202"/>
    <linearGradient id="_Áåçûìÿííûé_ãðàäèåíò_202-4" data-name="Áåçûìÿííûé ãðàäèåíò 202" x1="193.26" y1="278.29" x2="193.26" y2="224.24" xlink:href="#_Áåçûìÿííûé_ãðàäèåíò_202"/>
    <radialGradient id="radial-gradient" cx="82.12" cy="139.37" fx="82.12" fy="139.37" r="36.35" gradientTransform="translate(0 24.76) scale(1 .71)" gradientUnits="userSpaceOnUse">
      <stop offset="0" stop-color="#ff006a"/>
      <stop offset=".12" stop-color="#ff2e85" stop-opacity=".82"/>
      <stop offset=".3" stop-color="#ff6ca9" stop-opacity=".57"/>
      <stop offset=".48" stop-color="#ffa1c8" stop-opacity=".37"/>
      <stop offset=".64" stop-color="#ffc9df" stop-opacity=".21"/>
      <stop offset=".78" stop-color="#ffe6f0" stop-opacity=".09"/>
      <stop offset=".91" stop-color="#fff8fb" stop-opacity=".02"/>
      <stop offset="1" stop-color="#fff" stop-opacity="0"/>
    </radialGradient>
    <radialGradient id="radial-gradient-2" cx="234.14" cy="356.39" fx="234.14" fy="356.39" r="27.78" gradientTransform="translate(488.29 44.98) rotate(90) scale(1 .71)" gradientUnits="userSpaceOnUse">
      <stop offset="0" stop-color="#ff006a"/>
      <stop offset=".12" stop-color="#ff2e85" stop-opacity=".82"/>
      <stop offset=".3" stop-color="#ff6ca9" stop-opacity=".57"/>
      <stop offset=".48" stop-color="#ffa1c8" stop-opacity=".37"/>
      <stop offset=".64" stop-color="#ffc9df" stop-opacity=".21"/>
      <stop offset=".78" stop-color="#ffe6f0" stop-opacity=".09"/>
      <stop offset=".91" stop-color="#fff8fb" stop-opacity=".02"/>
      <stop offset="1" stop-color="#fff" stop-opacity="0"/>
    </radialGradient>
    <radialGradient id="radial-gradient-3" cx="290.22" cy="365.8" fx="290.22" fy="365.8" r="27.78" gradientTransform="translate(549.4 4.12) rotate(90) scale(1 .71)" gradientUnits="userSpaceOnUse">
      <stop offset="0" stop-color="#ff006a"/>
      <stop offset=".12" stop-color="#ff2e85" stop-opacity=".82"/>
      <stop offset=".3" stop-color="#ff6ca9" stop-opacity=".57"/>
      <stop offset=".48" stop-color="#ffa1c8" stop-opacity=".37"/>
      <stop offset=".64" stop-color="#ffc9df" stop-opacity=".21"/>
      <stop offset=".78" stop-color="#ffe6f0" stop-opacity=".09"/>
      <stop offset=".91" stop-color="#fff8fb" stop-opacity=".02"/>
      <stop offset="1" stop-color="#fff" stop-opacity="0"/>
    </radialGradient>
    <radialGradient id="_Áåçûìÿííûé_ãðàäèåíò_225" data-name="Áåçûìÿííûé ãðàäèåíò 225" cx="59.13" cy="401.14" fx="59.13" fy="401.14" r="27.78" gradientTransform="translate(-2.48 -.11) scale(1 .71)" gradientUnits="userSpaceOnUse">
      <stop offset="0" stop-color="#ff006a"/>
      <stop offset=".12" stop-color="#d00056"/>
      <stop offset=".3" stop-color="#92003c"/>
      <stop offset=".48" stop-color="#5d0027"/>
      <stop offset=".64" stop-color="#350016"/>
      <stop offset=".78" stop-color="#180009"/>
      <stop offset=".91" stop-color="#060002"/>
      <stop offset="1" stop-color="#000"/>
    </radialGradient>
  </defs>
  <g class="cls-13">
    <g id="space">
      <g class="cls-17">
        <g>
          <path class="cls-16" d="M334.64,321.71c-15.36-10.43-135.6-49.88-135.6-49.88l-12.98-19.92-3.34,.76-5.11-15.76h-7.02l-28.07-70.5-7.02-3.51-6.14-20.9-18.42-16.33c-17-9.32-40.99-17.28-42.48-17.77l-.07-.02s-9.26,7.85-12.66,13.65l-9.42,37.8-5.26,5.67-8.05,45.95-2.92,1.5-15.23,35.87-4.83,4.97-10.02,5.07v91.61l50.65-.23s83.99-11.93,102.41-13.01c7.73-.45,24.23-.85,45.98-1.21,95.8-1.55,293.52-2.18,293.52-2.18l-157.92-11.63Zm-179.25-97.71l-3.65,12.94-.02,.06-35.66,5.17-4.67-7.17,22-18.98,2.62-24.9,3.71,1.55,15.67,19.32v12.01Z"/>
          <polygon class="cls-22" points="201.22 268.33 204.93 269.5 206.89 268.33 201.22 268.33"/>
          <polygon class="cls-22" points="176.89 274.33 186.06 282.25 184.56 278.33 176.89 274.33"/>
          <path class="cls-11" d="M213.72,279l7-7.67,27.54,8.33,7.02,11.17,2.5,3.91s-31.76-1.08-35.24-3.42c-3.48-2.33-8.82-12.33-8.82-12.33Z"/>
          <path class="cls-23" d="M260.02,336.08l9.68-46.51s13.55-2.91,21.62-2.24c8.07,.67,15.05,10.13,16.19,11.9s0,25.26,0,25.26h2.59l2.3,9.81s-18.14,3.94-22.57,4.19-29.8-2.42-29.8-2.42Z"/>
          <path class="cls-7" d="M95.14,136.25l7.25,3.75-34-5.4v-26.72l.07,.02c1.49,.49,25.48,8.45,42.48,17.77l18.42,16.33-34.22-5.75Z"/>
          <polygon class="cls-7" points="135.5 162.9 126.14 172.5 95.14 179.33 104.64 179.33 78.14 187.75 133.39 175.32 142.52 166.41 135.5 162.9"/>
          <polygon class="cls-7" points="151.72 237 155.39 237 164.96 239.57 113.39 246.33 86.64 246.33 103.92 242.17 116.06 242.17 151.72 237"/>
          <polygon class="cls-7" points="177.61 236.91 168.39 239.57 170.59 236.91 177.61 236.91"/>
          <polygon class="cls-7" points="182.72 252.67 173 256 158.89 259 166.39 259 153.72 264.17 135.56 267 164.96 264 186.06 251.91 182.72 252.67"/>
          <polygon class="cls-7" points="199.04 271.83 205.06 278.29 213.72 280.5 215.33 277.24 199.04 271.83"/>
          <path class="cls-7" d="M220.72,271.33l1.82,6.96s7.36,7.04,25.1,6.71l.62-5.33-27.54-8.33Z"/>
          <path class="cls-7" d="M269.7,289.58s2.36,3.51,5.52,6.09c3.17,2.58,20.55,6.79,24.61,6.48,4.06-.31,7.68-2.91,7.68-2.91,0,0-5.35-8.92-13.27-11.28-7.92-2.36-24.54,1.63-24.54,1.63Z"/>
          <polygon class="cls-7" points="164.96 297.62 176.89 294.75 201.22 296.29 194.39 297.62 217.89 300 245.27 306.91 191.39 308.67 194.56 307.17 179.56 302.16 149.22 297.62 125.8 297.62 149.72 296.29 164.96 297.62"/>
          <polygon class="cls-7" points="334.64 321.71 322.43 325.4 411.41 328.16 334.64 321.71"/>
          <polygon class="cls-7" points="75.39 198 86.64 198 116.72 202.42 96.06 209 86.64 202.25 75.39 198"/>
          <path class="cls-21" d="M273.47,290.75s12.75-3.5,19.67-1.52,12.25,9.27,12.25,9.94-9.42,2.08-14.92,.67c-5.5-1.42-14.08-4.75-14.67-5.08-.58-.33-2.33-4-2.33-4Z"/>
          <path class="cls-21" d="M223.94,273.53c.09,.95,.82,4.25,1.55,4.83,.73,.58,5,3.5,8.94,4.27s10,.33,10.44,0c.44-.33-.03-1.01,0-2.23,.03-1.22-20.92-6.87-20.92-6.87Z"/>
          <path class="cls-15" d="M196.01,261.38l-2.12-34.5s-.57-2.38-4.46-2.62c-3.89-.25-6.66,4.15-6.66,4.15l-.04,24.27-1.25,16.25s14.92,8.67,23.58,9.38l-2.92-8.79-6.12-8.12Z"/>
          <path class="cls-7" d="M182.76,228.4s2,1.85,5.62,1.48,5.5-3,5.5-3c0,0-1.22-2.88-5.4-2.21-4.18,.67-5.73,3.73-5.73,3.73Z"/>
          <path class="cls-18" d="M184.06,228.4s1.33-2.02,3.62-2.65c2.29-.62,5.25,.92,5.25,.92,0,0-1.54,2.54-4.6,2.58s-4.27-.85-4.27-.85Z"/>
          <path class="cls-20" d="M277.4,295.42s7.54-.02,11.2,.25c3.66,.27,13.54,4.37,13.54,4.37,0,0-5.7,1.17-10.73,0-5.03-1.17-14.02-4.62-14.02-4.62Z"/>
          <path class="cls-20" d="M225.49,278.36s6.15-.02,9.65,.64,7.77,3.94,7.77,3.94c0,0-5.13,.5-7.89-.21-2.76-.71-7.25-2.52-9.53-4.37Z"/>
          <polygon class="cls-10" points="46.32 159.33 68.39 134.6 98.87 171.17 102.39 140 95.14 136.25 107.15 138.27 113.32 175.32 96.06 179.13 104.64 179.33 78.14 187.75 68.39 192.75 48.27 189.35 48.27 166.85 46.32 159.33"/>
          <path class="cls-10" d="M199.04,335.52c-21.75,.36-38.25,.76-45.98,1.21-18.42,1.08-84.38,10.31-84.38,10.31l9.46-62.04h0c-6.26-3.24-13.83-4.91-21.49-4.77l-12.24-69.76,30.98-12.48,11.25,4.25,9.42,6.75-8.19,41-1.23-28.38-3.92,18.11-4.58,6.6,1.18,9.08-3.93,18.11,50.41,24.09h23.42l13.42,27.52,2.32-24.58,14.6,1.6,15,5.01-3.17,1.5,.67,11.83,3.97,4.44,3.02,10.58Z"/>
          <polygon class="cls-10" points="168.39 239.57 155.39 237 151.74 236.94 155.39 224 155.39 211.99 139.72 192.67 136.01 191.12 133.39 216.02 121.89 179.33 139.22 189.67 152.72 205.17 159.66 209.45 157.72 226.06 168.39 239.57"/>
          <polygon class="cls-10" points="164.96 264 164.96 297.62 149.72 296.29 137.71 266.78 164.96 264"/>
          <polygon class="cls-10" points="182.76 253.8 176.89 257.16 181.47 268.92 186.89 250.75 185.5 229.7 182.76 228.4 182.76 253.8"/>
          <polygon class="cls-10" points="220.72 271.33 215.33 277.24 213.72 280.5 218.01 288.62 222.54 278.29 220.72 271.33"/>
          <polygon class="cls-10" points="269.7 289.58 260.02 336.08 277.4 337.76 279.47 320.24 277.4 318.04 277.4 308.67 275.22 295.67 269.7 289.58"/>
          <polygon class="cls-10" points="302.15 336.43 312.39 330 314.64 333.22 357.64 330 379.64 333.22 312.39 334.31 302.15 336.43"/>
          <polygon class="cls-10" points="220.72 305.5 228 307.47 232.22 310.33 230.42 307.39 220.72 305.5"/>
          <polygon class="cls-10" points="288.6 319.5 293.89 324.94 291.25 324.94 288.6 319.5"/>
          <polygon class="cls-10" points="111.39 246.33 113.32 251.27 115.56 245.38 111.39 246.33"/>
          <polygon class="cls-14" points="288.6 319.5 289.43 324.94 293.89 324.94 290.72 323.5 288.6 319.5"/>
          <polygon class="cls-14" points="220.72 305.5 225.49 307.55 232.22 310.33 228 307.47 220.72 305.5"/>
          <polygon class="cls-14" points="115.56 245.38 113.47 246.75 113.32 251.27 111.39 246.33 115.56 245.38"/>
          <polygon class="cls-24" points="160.81 264.42 164.96 267 166.01 263.4 160.81 264.42"/>
          <polygon class="cls-24" points="191.39 308.67 192.06 320.5 193.89 311.75 192.64 308.67 191.39 308.67"/>
          <path class="cls-24" d="M295.21,301.71s4.06,2.34,4.62,1.94,3.34-2.24,3.34-2.24c0,0-2.59,.81-3.34,.73-.75-.08-4.62-.44-4.62-.44Z"/>
          <polygon class="cls-24" points="246.14 285.01 248.26 287.2 247.64 285 246.14 285.01"/>
          <polygon class="cls-7" points="196.01 261.38 194.72 265.2 197.89 267 202.14 269.5 196.01 261.38"/>
          <polygon class="cls-10" points="193.89 239.57 192.64 244.25 192.93 246.33 193.89 239.57"/>
          <polygon class="cls-14" points="192.93 246.33 194.35 242.59 193.89 239.57 192.93 246.33"/>
          <polygon class="cls-24" points="94.83 208.12 95.76 210.48 97.96 208.39 94.83 208.12"/>
          <path class="cls-10" d="M68.39,274.33l7-.8s39.75,8.44,46.5,9.58c6.75,1.14,22.92,1.12,22.92,1.12,0,0,20.15,2.22,20.15,1.87s16.81-8.8,17.81-8.7c1,.1,22.29,.89,22.29,.89l-22.23-.12s-17.24,8.77-17.87,8.77-19.32-1.95-19.9-2.11c-.58-.16-19.98-.7-23.23-1.2s-45.69-9.31-46.69-9.31-14.76,2.4-14.76,2.4l8.01-2.38Z"/>
          <path class="cls-10" d="M68.39,212.33s23.98,15.15,23.99,15.09c.01-.05,21.44-15.57,23.17-15.85,1.97-.31,13.89,.79,15.53,.7,1.84-.09,3.02-2.98,3.02-2.98,0,0-.64,3.29-1.58,3.93s-15.98-1.67-16.96-1.48c-.98,.19-22.49,16.54-23.37,16.65s-23.8-14.31-23.8-14.31v-1.75Z"/>
          <path class="cls-21" d="M68.39,110.17s18.25,6.02,24.25,8.02,23.94,14.81,24.5,15.94-19.75,.69-27.62-.44-33.39-4.01-33.39-4.01c.8-7.78,5.28-12.44,12.26-19.51Z"/>
          <path class="cls-20" d="M68.39,118.88c6.47,.15,21.01,6.75,24.38,8.75,3.37,2,8.68,6.98,8.68,6.98,0,0-5.79,.07-14.07-1.23s-31.25-3.7-31.25-3.7c0,0,5.88-10.95,12.26-10.8Z"/>
          <g class="cls-9">
            <path class="cls-12" d="M269.95,333.81c-.08-.43-.2-.86-.26-1.29-.08-.5-.1-1.02-.11-1.53-.13-3.77-.26-7.53-.39-11.3,0,1.98,0,4,.67,5.86,.19,.53,.44,1.05,.46,1.61,0,.33-.06,.66-.07,.99-.02,.72,.27,1.44,.78,1.94,.49-.5,.53-1.27,.55-1.97,.14-5.28,.61-10.55,1.07-15.81,.16-1.76,.31-3.52,.46-5.28l-.08,5.34c0,.23,0,.48-.09,.69-.06,.15-.14,.28-.19,.43-.05,.19-.03,.38,0,.58,.16,1.23,.33,2.45,.49,3.68,.1,.75,.16,1.61-.38,2.14-.1,.1-.23,.19-.28,.32-.08,.2,.04,.42,.13,.62,.42,.95,.07,2.04-.09,3.07-.16,1.04-.13,2.1-.1,3.15,.03,1.01,.06,2.01,.1,3.02,.01,.36,.03,.74,.24,1.03,.31,.41,.96,.56,1.07,1.06,.05,.21-.02,.42-.07,.63-.24,1.09,.11,2.22,.47,3.28,.17,.52,.35,1.05,.52,1.57-.06-.19-1.88-.27-2.1-.28-.67-.05-1.46,.08-2.12-.05-.73-.14-.49-.52-.5-1.27-.01-.74-.05-1.49-.19-2.22Z"/>
            <path class="cls-12" d="M263.39,334.5c.37-.07,.46-.55,.47-.92,.07-2.4,.11-4.8,.13-7.21,0-.4,.01-.82,.24-1.15,.22-.33,.74-.48,1.02-.2,.03,1.74,.06,3.48,.09,5.22-.24-.09-.51,.08-.62,.31-.11,.23-.11,.49-.1,.75,.05,1.76,.27,3.52,.29,5.27-.36-.35-.91-.2-1.22-.48-.33-.3-.24-1.18-.29-1.59Z"/>
            <path class="cls-12" d="M266.25,316.79c.04-.34,.08-.68,.21-1,.12-.29,.3-.54,.46-.8,1.88-2.99,1.27-6.93,2.56-10.22-.06,3.86-.44,7.72-1.12,11.52-.53,.19-1.05,.39-1.58,.58-.02,1.77-.05,3.54-.07,5.31-.66,.24-.96,.79-1.24,1.38-.11-1.05,.25-2.34,.37-3.41,.14-1.12,.27-2.25,.41-3.37Z"/>
            <path class="cls-12" d="M269.69,304.06c-.04-.5,0-1.01,.15-1.49,.12,0,.24-.01,.36-.02-.06,.52-.1,1.05-.12,1.58-.1-.05-.21-.09-.31-.14l-.08,.07Z"/>
            <path class="cls-12" d="M278.44,315.29c.12,.03,.23,.06,.35,.09,.13,.74,.26,1.48,.39,2.22-.05-.39,.25-.72,.39-1.08,.15-.39,.1-.83,.03-1.24-.06-.36-.14-1.71-.67-1.77-.44-.05-.42,1.39-.49,1.78Z"/>
            <path class="cls-12" d="M281.33,330.18c.25,0,.51,.05,.75,.14,.15,1.28,.31,2.57,.46,3.85,.16-.08,.33-.15,.49-.23,.29,1.3,.58,2.6,.87,3.9,.02,.09,.04,.19,.12,.25,.06,.05,.14,.07,.21,.08,2.23,.4,4.59,.79,6.71,0,.1-1.33,.02-2.68-.23-3.99-.28,.17-.62,.24-.94,.19-.2,.93-.27,1.9-.2,2.85-1.01-.92-2.56-1.2-3.82-.69-.59-.5-1.01-1.21-1.17-1.97-.11-.54-.1-1.1-.18-1.65-.1-.7-.36-1.37-.74-1.96-.17,.28-.48,.48-.81,.5,.03-1.1-.44-2.19-1.26-2.93,.44-1.16,.58-2.44,.4-3.66-.11-.74-.25-1.5-.36-2.23-.57,.63-.17,7.56-.29,7.56Z"/>
          </g>
          <polygon class="cls-7" points="299.19 337.01 299.19 320.5 300.76 317.61 299.83 303.65 303.17 301.41 307.51 299.23 307.51 324.49 305.39 326.75 299.19 337.01"/>
          <path class="cls-24" d="M298.87,322.98c.27-1.03,1.28-2.86,.63-3.83-.49,.46-.9,1.24-1.02,1.93-.1,.57,.47,1.58,.39,1.9Z"/>
          <path class="cls-24" d="M203.07,322.35c.34,.7,.95,1.26,1.68,1.53-.43-.6-.85-1.19-1.28-1.79-.08-.12-.18-.24-.31-.28-.14-.04-.32,.06-.3,.2l.21,.34Z"/>
          <polygon class="cls-10" points="73.6 314.32 75.45 299.56 73.41 309.03 81.47 297.63 89.36 285.01 82.87 298.28 81.29 299.33 71.48 325.74 76.56 319.72 72.7 327.45 72.94 335.27 87.31 313.91 88.37 307.8 100.99 292.55 89.18 313.91 68.67 347.04 73.6 314.32"/>
          <polygon class="cls-10" points="80.89 186.01 76.55 169.6 75.93 172.2 76.96 173.35 77.04 177.81 74.48 170.5 73.61 162.3 73.61 162.3 73.19 163.83 73.49 165.68 72.43 167.04 70.87 154.3 70.67 161.57 68.27 151.04 66.74 149.17 67.76 167.14 52.64 190.09 68.39 192.75 80.89 186.01"/>
          <polygon class="cls-10" points="228 307.47 233.39 307.02 232.22 307.92 235.75 317.61 237.64 322.22 242.14 324.94 237.08 322.84 235.75 320.89 233.26 313.67 232.22 310.33 228 307.47"/>
          <polygon class="cls-5" points="245.27 306.91 247.72 325.5 245.05 325.5 242.14 324.94 237.64 322.22 232.22 307.92 233.39 307.02 245.27 306.91"/>
          <polygon class="cls-10" points="153.33 209.45 157.64 210.48 159.66 209.45 158.81 211.25 156.49 212.42 155.39 211.99 153.33 209.45"/>
          <polygon class="cls-10" points="108.65 204.99 107.95 202.56 108.42 202.21 109.54 201.36 116.72 202.42 109.95 201.75 109.01 203.17 110.33 204.45 111.39 210.48 108.65 204.99"/>
          <polygon class="cls-5" points="116.72 202.42 115.7 209 113.32 209.94 111.39 210.48 110.33 204.45 109.01 203.17 109.95 201.75 116.72 202.42"/>
          <g class="cls-6">
            <path class="cls-8" d="M177.01,294.55c-.76,.64-1.37,1.46-1.76,2.37-.06,.15-.12,.3-.12,.46,0,.31,.24,.57,.5,.73,.65,.39,1.54,.28,2.12-.2,.59-.48,.87-1.28,.8-2.03-.04-.41-.19-.84-.52-1.1-.32-.26-.84-.3-1.14-.02,0,.13,.19,.22,.3,.13l-.18-.34Z"/>
            <path class="cls-8" d="M181.42,294.73c-.41,.4-.59,1.01-.46,1.57,.55,.15,1.18,.11,1.61-.26,.43-.37,.55-1.11,.15-1.51-.4-.4-1.26-.14-1.27,.42l-.03-.23Z"/>
            <path class="cls-8" d="M179.89,299.9c-.06,.18-.1,.37-.1,.57,0,.02,0,.05,.01,.07,.01,.02,.04,.03,.07,.03,.2,.02,.4-.22,.56-.12,.03,.02,.06,.05,.09,.05,.06,0,.08-.08,.07-.14-.05-.31-.43-.51-.71-.38l.04-.08h-.03Z"/>
            <path class="cls-8" d="M167.35,293.02c-.12,.34-.18,.7-.19,1.07,0,.04,0,.09,.02,.13,.03,.04,.08,.05,.12,.06,.37,.04,.75-.42,1.06-.22,.06,.04,.11,.09,.18,.09,.11,0,.15-.15,.13-.27-.09-.58-.82-.97-1.35-.71l.07-.15h-.05Z"/>
            <path class="cls-8" d="M157.93,289.4c-.12,.34-.18,.7-.19,1.07,0,.04,0,.09,.02,.13,.03,.04,.08,.05,.12,.06,.37,.04,.75-.42,1.06-.22,.06,.04,.11,.09,.18,.09,.11,0,.15-.15,.13-.27-.09-.58-.82-.97-1.35-.71,.02-.05,.05-.1,.07-.15h-.05Z"/>
            <path class="cls-8" d="M177.13,301.93c-.18,.19-.27,.47-.23,.73,.12,0,.24-.02,.35-.07,.11-.05,.19-.17,.18-.28-.02-.16-.19-.25-.34-.31,.04-.02,.08-.04,.12-.05h-.07Z"/>
            <path class="cls-8" d="M178.14,303.56c-.02,.07-.05,.15-.02,.22,.02,.07,.09,.11,.15,.15,.16,.11,.31,.24,.45,.38-.02-.32-.05-.65-.07-.97,0-.03,0-.05,0-.08,.03-.09,.15-.09,.22-.14,.1-.08,.07-.25,.01-.36-.42-.84-.61,.43-.74,.81Z"/>
            <path class="cls-8" d="M183.79,311.73c-.02,.07-.05,.15-.02,.22,.02,.07,.09,.11,.15,.15,.16,.11,.31,.24,.45,.38-.02-.32-.05-.65-.07-.97,0-.03,0-.05,0-.08,.03-.09,.15-.09,.22-.14,.1-.08,.07-.25,.01-.36-.42-.84-.61,.43-.74,.81Z"/>
            <path class="cls-8" d="M172.66,306.72c0,.1,0,.19,0,.29,.19-.02,.39-.14,.42-.33,.04-.19-.17-.4-.34-.31-.11,.05-.25,.17-.3,.07l.21,.29Z"/>
            <path class="cls-8" d="M171.21,301.94c.16-.21,.55-.17,.66,.07,.11,.24-.11,.57-.38,.55s-.45-.37-.3-.6l.02-.03Z"/>
            <path class="cls-8" d="M170.01,297.68c-.06-.2-.09-.48,.1-.58,.19-.09,.38,.1,.5,.26,.05,.07,.11,.16,.08,.24-.08,.2-.46-.02-.58,.16-.06,0-.07-.12,0-.12l-.09,.04Z"/>
            <path class="cls-8" d="M180.52,290.68c-.13,.29-.18,.64-.02,.91,.16,.27,.6,.36,.79,.12,.06-.07,.08-.17,.08-.26,0-.05-.02-.11-.03-.16-.07-.2-.18-.4-.37-.5-.19-.1-.46-.05-.55,.14l.1-.24Z"/>
            <path class="cls-8" d="M177.15,284.01c.09,.04,.18,.07,.27,.05,.09-.02,.16-.1,.24-.15,.19-.11,.43-.04,.64-.1,.36-.1,.52-.52,.63-.88,.02-.08,.04-.19-.01-.25-.04-.05-.11-.06-.18-.07-.44-.11-.43-.59-.79-.78-.28-.14-.83-.09-1.08,.1-.73,.56-.5,1.76,.28,2.08Z"/>
            <path class="cls-8" d="M178.81,299.2c-.02-.08,0-.16,.02-.24,.17,.11,.21,.34,.23,.55,0,.11,0,.26-.11,.3-.07,.03-.16,0-.24,0-.16,.01-.34,.16-.46,.05-.07-.06-.06-.17-.02-.25,.05-.08,.13-.12,.21-.17,.17-.1,.34-.2,.51-.3l-.15,.04Z"/>
            <path class="cls-8" d="M181.89,298.64c-.09,.14,.12,.31,.27,.26,.16-.06,.23-.23,.3-.38-.2-.11-.47-.09-.64,.05l.07,.07Z"/>
            <path class="cls-8" d="M180.92,300.92c-.03,.08-.06,.15-.05,.24,0,.08,.05,.17,.13,.19,.13,.04,.24-.1,.37-.12,.13-.02,.28,.07,.4,0,.12-.07,.11-.25,.01-.34s-.23-.12-.37-.13c-.12-.01-.24-.01-.35,.04-.11,.05-.18,.18-.15,.29v-.16Z"/>
            <path class="cls-8" d="M180.63,301.96c.05-.06,.15-.05,.21,0,.06,.05,.07,.14,.07,.22,0,.05-.01,.09-.04,.13-.06,.09-.2,.11-.28,.04s-.09-.2-.03-.29,.2-.1,.29-.04l-.22-.07Z"/>
            <path class="cls-8" d="M190.89,306.48c.05-.06,.15-.05,.21,0,.06,.05,.07,.14,.07,.22,0,.05-.01,.09-.04,.13-.06,.09-.2,.11-.28,.04-.08-.07-.09-.2-.03-.29s.2-.1,.29-.04l-.22-.07Z"/>
            <path class="cls-8" d="M179.6,301.72c-.15-.07-.35,.09-.31,.25,.08,.03,.17,.06,.25,.04,.08-.02,.16-.1,.16-.18,0-.09-.11-.16-.18-.11h.09Z"/>
            <path class="cls-8" d="M168.79,304.89c-.15-.07-.35,.09-.31,.25,.08,.03,.17,.06,.25,.04,.08-.02,.16-.1,.16-.18s-.11-.16-.18-.11h.09Z"/>
            <path class="cls-8" d="M176.08,300.51c-.18,.09-.31,.27-.34,.47,.16,.01,.33,.03,.49,.04,.08,0,.16,.01,.23-.02,.14-.06,.16-.27,.07-.39-.09-.12-.27-.15-.41-.09h-.03Z"/>
            <path class="cls-8" d="M173.32,296.56c0-.3,0-.59,0-.89,.14-.06,.25,.13,.28,.27s.07,.31,.01,.45c-.05,.14-.23,.24-.36,.16h.06Z"/>
            <path class="cls-8" d="M173.62,292.02c-.22,.02-.3,.34-.16,.5,.14,.16,.41,.16,.59,.04,.08-.05,.14-.13,.16-.22,.02-.14-.09-.28-.22-.33-.13-.05-.28-.04-.43-.03l.06,.04Z"/>
            <path class="cls-8" d="M170.23,298.92c-.2,.03-.37,.19-.41,.39,.12,.08,.28,.1,.42,.08,.19-.03,.37-.2,.35-.39s-.31-.31-.41-.15l.05,.07Z"/>
            <path class="cls-8" d="M171.82,297.62c.08-.11,.24-.16,.36-.1,0,.15,0,.3,0,.45-.19,.08-.44-.07-.46-.28l.1-.07Z"/>
            <path class="cls-8" d="M177.77,292.27l.67-.23c.06-.02,.13-.04,.17-.09,.05-.05,.06-.12,.08-.19,.06-.24,.08-.56-.13-.69-.23-.14-.51,.07-.75,.21-.44,.25-1.84,.19-1.82,.94,.02,.79,1.37,.2,1.77,.06Z"/>
            <path class="cls-8" d="M174.02,293.59c-.01-.06-.03-.12-.04-.18,.14,.02,.28,.05,.39,.13,.11,.08,.19,.23,.14,.36s-.25,.18-.33,.07c-.09-.11-.14-.25-.14-.39h-.02Z"/>
            <path class="cls-8" d="M182.52,300.61c.08-.08,.21-.11,.32-.07s.19,.15,.19,.26c0,.08-.05,.17-.13,.16-.03,0-.06-.03-.09-.05-.11-.09-.23-.18-.34-.28,.02-.02,.04-.03,.06-.05v.02Z"/>
            <path class="cls-8" d="M184.68,301.31c.08,.12,.26,.1,.4,.07,.14-.04,.31-.07,.41,.02,.03,.03,.05,.06,.05,.1-.01,.1-.16,.1-.25,.13-.08,.03-.14,.09-.2,.13-.16,.1-.39,.09-.54-.03-.04-.09-.02-.21,.05-.29,.07-.08,.19-.1,.28-.07l-.19-.06Z"/>
            <path class="cls-8" d="M184.2,302.67c-.01,.05-.02,.11-.03,.16,.07,.06,.18,.06,.25,0s.07-.18,0-.24c-.07-.06-.2-.03-.22,.06v.02Z"/>
            <path class="cls-8" d="M187.19,305.13c-.01,.05-.02,.11-.03,.16,.07,.06,.18,.06,.25,0s.07-.18,0-.24c-.07-.06-.2-.03-.22,.06v.02Z"/>
            <path class="cls-8" d="M178.41,301.54c.07-.08-.01-.21-.11-.25-.1-.03-.22,0-.32-.03-.11-.02-.21-.09-.26-.19-.03-.06-.05-.13-.01-.18,.02-.04,.06-.06,.1-.08,.19-.09,.4-.16,.62-.14,.21,.02,.42,.16,.47,.37,.04,.14,0,.31-.12,.41-.11,.1-.27,.14-.41,.1h.04Z"/>
            <path class="cls-8" d="M167.18,311.06c.07-.08-.01-.21-.11-.25-.1-.03-.22,0-.32-.03-.11-.02-.21-.09-.26-.19-.03-.06-.05-.13-.01-.18,.02-.04,.06-.06,.1-.08,.19-.09,.4-.16,.62-.14,.21,.02,.42,.16,.47,.37,.04,.14,0,.31-.12,.41-.11,.1-.27,.14-.41,.1h.04Z"/>
            <path class="cls-8" d="M175.99,303.1c-.12,.07-.14,.24-.06,.36,.07,.11,.22,.16,.35,.15,.06,0,.13-.04,.13-.1,0-.04-.03-.07-.06-.1-.12-.12-.23-.23-.35-.35v.05Z"/>
            <path class="cls-8" d="M170.4,306.61c-.33-.12-.7-.11-1.01,.04-.05,.03-.11,.06-.13,.12-.04,.13,.13,.21,.24,.29,.18,.14,.23,.4,.41,.54,.15,.11,.35,.11,.53,.1,.27-.01,.62-.11,.62-.37,0-.14-.1-.25-.2-.35-.22-.19-.47-.35-.74-.47l.28,.11Z"/>
            <path class="cls-8" d="M164.58,297.87c-.15-.15-.39,.03-.52,.2-.08,.1-.17,.23-.13,.36,.05,.17,.27,.21,.45,.21,.15,0,.31,0,.46,0,.07,0,.15,0,.19-.05,.04-.05,.04-.11,.03-.17-.03-.3-.12-.6-.27-.87l-.21,.32Z"/>
            <path class="cls-8" d="M170.14,293.88c-1.21-1.43-2.76,.14-2.04,1.57,.75,1.5,3.09-.33,2.04-1.57Z"/>
            <path class="cls-8" d="M180.23,297c.25-.11,.58,.1,.59,.37-.2,.06-.42,.12-.62,.05s-.36-.3-.26-.49l.35-.14-.05,.2Z"/>
            <path class="cls-8" d="M186.34,297.03c0,.1,0,.2,0,.3,.35-.04,.72,0,1.06,.11,.17,.05,.34,.13,.52,.15,.18,.02,.38-.03,.48-.18,.19-.27-.06-.65-.34-.82-.36-.22-.82-.31-1.21-.17-.4,.14-.71,.54-.68,.96,.14,0,.28,0,.42,0l-.24-.36Z"/>
            <path class="cls-8" d="M186.67,300.04c-.13,.05-.08,.15,.05,.2,.14,.04,.31,.05,.48,.04,.37,0,.74,0,1.11,0,.21,0,.46-.01,.56-.1,.08-.07,0-.17-.15-.22-.15-.05-.33-.07-.51-.08-.59-.04-1.32-.03-1.63,.21,.09,.04,.19,.08,.28,.11l-.18-.16Z"/>
            <path class="cls-8" d="M186.45,302.07c.03-.05,.12-.05,.16-.01,.05,.04,.07,.1,.08,.17,0,.05,.01,.1,0,.15-.03,.09-.14,.15-.24,.14s-.18-.09-.22-.18c-.02-.05-.02-.1,0-.14,.02-.04,.08-.07,.12-.05l.1-.07Z"/>
            <path class="cls-8" d="M178.39,307.41c-.27,.05-.54,.13-.79,.24,0,.07,.05,.14,.1,.19,.3,.27,.85,.19,1.06-.15,.03-.05,.06-.11,.05-.17-.01-.08-.09-.13-.17-.14s-.16,.01-.24,.03h-.01Z"/>
            <path class="cls-8" d="M179.91,303.21c0,.06-.02,.11-.03,.17,.09,.02,.18,.05,.26,0,.08-.04,.11-.18,.03-.21-.03-.01-.07-.01-.1,0-.11,.01-.21,.02-.32,.04h.16Z"/>
            <path class="cls-8" d="M173.68,302.74c-.07,.12-.15,.25-.17,.39-.02,.14,.03,.3,.15,.37,.06,.03,.14,.04,.2,.03,.21-.04,.36-.27,.31-.48-.05-.21-.29-.34-.49-.28v-.02Z"/>
            <path class="cls-8" d="M166.6,304.35c-.03-.2,.22-.38,.4-.28,.05,.1,.07,.21,.08,.33-.12,.04-.25,.02-.36-.03l-.11-.02Z"/>
            <path class="cls-8" d="M166.98,300.78c-.12,.05,0,.25,.12,.21,.12-.04,.15-.2,.12-.32-.11-.01-.23,.06-.27,.17l.04-.05Z"/>
            <path class="cls-8" d="M181.64,293.35v.29c.08,.02,.16,.02,.23,0,.05-.13-.04-.3-.17-.34l-.06,.05Z"/>
            <path class="cls-8" d="M160.45,280.97c0,.1,0,.19,0,.29,.07,.02,.15,.02,.22,0,.05-.13-.04-.3-.17-.34l-.06,.05Z"/>
            <path class="cls-8" d="M169.56,289.72c-.09-.33,0-.7,.24-.94,.03-.03,.06-.06,.1-.07,.06,0,.12,.04,.16,.09,.26,.27,.54,.64,.38,.98-.14,.29-.62,.32-.8,.05,.03-.1,.07-.2,.1-.3l-.19,.18Z"/>
            <path class="cls-8" d="M189.85,282.1c-.09-.33,0-.7,.24-.94,.03-.03,.06-.06,.1-.07,.06,0,.12,.04,.16,.09,.26,.27,.54,.64,.38,.98-.14,.29-.62,.32-.8,.05,.03-.1,.07-.2,.1-.3l-.19,.18Z"/>
          </g>
          <g class="cls-6">
            <path class="cls-8" d="M154.3,251.1c-.76,.64-1.37,1.46-1.76,2.37-.06,.15-.12,.3-.12,.46,0,.31,.24,.57,.5,.73,.65,.39,1.54,.28,2.12-.2,.59-.48,.87-1.28,.8-2.03-.04-.41-.19-.84-.52-1.1-.32-.26-.84-.3-1.14-.02,0,.13,.19,.22,.3,.13l-.18-.34Z"/>
            <path class="cls-8" d="M164.33,245.47c-.41,.4-.59,1.01-.46,1.57,.55,.15,1.18,.11,1.62-.26,.43-.37,.55-1.11,.15-1.51-.4-.4-1.26-.14-1.27,.42l-.03-.23Z"/>
            <path class="cls-8" d="M162.79,250.63c-.06,.18-.1,.37-.1,.57,0,.02,0,.05,.01,.07,.01,.02,.04,.03,.07,.03,.2,.02,.4-.22,.56-.12,.03,.02,.06,.05,.09,.05,.06,0,.08-.08,.07-.14-.05-.31-.43-.51-.71-.38l.04-.08h-.03Z"/>
            <path class="cls-8" d="M85.13,189.07c-.12,.34-.18,.7-.19,1.07,0,.04,0,.09,.02,.13,.03,.04,.08,.05,.12,.06,.37,.04,.75-.42,1.06-.22,.06,.04,.11,.09,.18,.09,.11,0,.15-.15,.13-.27-.09-.58-.82-.97-1.35-.71l.07-.15h-.05Z"/>
            <path class="cls-8" d="M75.72,185.45c-.12,.34-.18,.7-.19,1.07,0,.04,0,.09,.02,.13,.03,.04,.08,.05,.12,.06,.37,.04,.75-.42,1.06-.22,.06,.04,.11,.09,.18,.09,.11,0,.15-.15,.13-.27-.09-.58-.82-.97-1.35-.71,.02-.05,.05-.1,.07-.15h-.05Z"/>
            <path class="cls-8" d="M160.03,252.67c-.18,.19-.27,.47-.23,.73,.12,0,.24-.02,.35-.07,.11-.05,.19-.17,.18-.28-.02-.16-.19-.25-.34-.31,.04-.02,.08-.04,.12-.05h-.07Z"/>
            <path class="cls-8" d="M161.04,254.29c-.02,.07-.05,.15-.02,.22,.02,.07,.09,.11,.15,.15,.16,.11,.31,.24,.45,.38-.02-.32-.05-.65-.07-.97,0-.03,0-.05,0-.08,.03-.09,.15-.09,.22-.14,.1-.08,.07-.25,.01-.36-.42-.84-.61,.43-.74,.81Z"/>
            <path class="cls-8" d="M101.57,207.78c-.02,.07-.05,.15-.02,.22,.02,.07,.09,.11,.15,.15,.16,.11,.31,.24,.45,.38-.02-.32-.05-.65-.07-.97,0-.03,0-.05,0-.08,.03-.09,.15-.09,.22-.14,.1-.08,.07-.25,.01-.36-.42-.84-.61,.43-.74,.81Z"/>
            <path class="cls-8" d="M90.45,202.77c0,.1,0,.19,0,.29,.19-.02,.39-.14,.42-.33,.04-.19-.17-.4-.34-.31-.11,.05-.25,.17-.3,.07l.21,.29Z"/>
            <path class="cls-8" d="M88.99,197.99c.16-.21,.55-.17,.66,.07,.11,.24-.11,.57-.38,.55s-.45-.37-.3-.6l.02-.03Z"/>
            <path class="cls-8" d="M87.8,193.73c-.06-.2-.09-.48,.1-.58,.19-.09,.38,.1,.5,.26,.05,.07,.11,.16,.08,.24-.08,.2-.46-.02-.58,.16-.06,0-.07-.12,0-.12l-.09,.04Z"/>
            <path class="cls-8" d="M98.31,186.73c-.13,.29-.18,.64-.02,.91,.16,.27,.6,.36,.79,.12,.06-.07,.08-.17,.08-.26,0-.05-.02-.11-.04-.16-.07-.2-.18-.4-.37-.5-.19-.1-.46-.05-.55,.14l.1-.24Z"/>
            <path class="cls-8" d="M145.86,246.48c.09,.04,.18,.07,.27,.05,.09-.02,.16-.1,.24-.15,.19-.11,.43-.04,.64-.1,.36-.1,.52-.52,.63-.88,.02-.08,.04-.19-.01-.25-.04-.05-.11-.06-.18-.07-.44-.11-.43-.59-.79-.78-.28-.14-.83-.09-1.08,.1-.73,.56-.5,1.76,.28,2.08Z"/>
            <path class="cls-8" d="M161.72,249.93c-.02-.08,0-.16,.02-.24,.17,.11,.21,.34,.23,.55,0,.11,0,.26-.11,.3-.07,.03-.16,0-.24,0-.16,.01-.34,.16-.46,.05-.07-.06-.06-.17-.02-.25,.05-.08,.13-.12,.21-.17,.17-.1,.34-.2,.51-.3l-.15,.04Z"/>
            <path class="cls-8" d="M164.79,249.38c-.09,.14,.12,.31,.27,.26,.16-.06,.23-.23,.3-.38-.2-.11-.47-.09-.64,.05l.07,.07Z"/>
            <path class="cls-8" d="M163.82,251.65c-.03,.08-.06,.15-.05,.24s.05,.17,.13,.19c.13,.04,.24-.1,.37-.12,.13-.02,.28,.07,.4,0,.12-.07,.11-.25,.01-.34s-.23-.12-.37-.13c-.12-.01-.24-.01-.35,.04-.11,.05-.19,.18-.15,.29v-.16Z"/>
            <path class="cls-8" d="M163.53,252.69c.05-.06,.15-.05,.21,0,.06,.05,.07,.14,.07,.22,0,.05-.01,.09-.04,.13-.06,.09-.2,.11-.28,.04s-.09-.2-.03-.29,.2-.1,.29-.04l-.22-.07Z"/>
            <path class="cls-8" d="M173.8,257.22c.05-.06,.15-.05,.21,0,.06,.05,.07,.14,.07,.22,0,.05-.01,.09-.04,.13-.06,.09-.2,.11-.28,.04s-.09-.2-.03-.29,.2-.1,.29-.04l-.22-.07Z"/>
            <path class="cls-8" d="M162.51,252.46c-.15-.07-.35,.09-.31,.25,.08,.03,.17,.06,.25,.04s.16-.1,.16-.18c0-.09-.11-.16-.18-.11h.09Z"/>
            <path class="cls-8" d="M86.58,200.94c-.15-.07-.35,.09-.31,.25,.08,.03,.17,.06,.25,.04s.16-.1,.16-.18-.11-.16-.18-.11h.09Z"/>
            <path class="cls-8" d="M93.86,196.56c-.18,.09-.31,.27-.34,.47,.16,.01,.33,.03,.49,.04,.08,0,.16,.01,.23-.02,.14-.06,.16-.27,.07-.39-.09-.12-.27-.15-.41-.09h-.03Z"/>
            <path class="cls-8" d="M91.1,192.61c0-.3,0-.59,0-.89,.14-.06,.25,.13,.28,.27s.07,.31,.01,.45c-.05,.14-.23,.24-.36,.16h.06Z"/>
            <path class="cls-8" d="M91.4,188.08c-.22,.02-.3,.34-.16,.5,.14,.16,.41,.16,.59,.04,.08-.05,.14-.13,.16-.22,.02-.14-.09-.28-.22-.33-.13-.05-.28-.04-.43-.03l.06,.04Z"/>
            <path class="cls-8" d="M88.01,194.98c-.2,.03-.37,.19-.41,.39,.12,.08,.28,.1,.42,.08,.19-.03,.37-.2,.35-.39-.02-.19-.31-.31-.41-.15l.05,.07Z"/>
            <path class="cls-8" d="M89.61,193.67c.08-.11,.24-.16,.36-.1,0,.15,0,.3,0,.45-.19,.08-.44-.07-.46-.28l.1-.07Z"/>
            <path class="cls-8" d="M95.55,188.33l.67-.23c.06-.02,.13-.04,.17-.09,.05-.05,.06-.12,.08-.19,.06-.24,.08-.56-.13-.69-.23-.14-.51,.07-.75,.21-.44,.25-1.84,.19-1.82,.94,.02,.79,1.37,.2,1.77,.06Z"/>
            <path class="cls-8" d="M91.8,189.64c-.01-.06-.03-.12-.04-.18,.14,.02,.28,.05,.39,.13,.11,.08,.19,.23,.14,.36-.05,.13-.25,.18-.33,.07-.09-.11-.14-.25-.14-.39h-.02Z"/>
            <path class="cls-8" d="M165.43,251.34c.08-.08,.21-.11,.32-.07,.11,.04,.19,.15,.19,.26,0,.08-.05,.17-.13,.16-.03,0-.06-.03-.09-.05-.11-.09-.23-.18-.34-.28l.06-.05v.02Z"/>
            <path class="cls-8" d="M167.58,252.05c.08,.12,.26,.1,.4,.07,.14-.04,.31-.08,.41,.02,.03,.03,.05,.06,.05,.1-.01,.1-.16,.1-.25,.13-.08,.03-.14,.09-.2,.13-.16,.1-.39,.09-.54-.03-.04-.09-.02-.21,.05-.29,.07-.08,.19-.1,.28-.07l-.19-.06Z"/>
            <path class="cls-8" d="M167.11,253.4c-.01,.05-.02,.11-.03,.16,.07,.06,.18,.06,.25,0s.07-.18,0-.24c-.07-.06-.2-.03-.22,.06v.02Z"/>
            <path class="cls-8" d="M170.1,255.87c-.01,.05-.02,.11-.03,.16,.07,.06,.18,.06,.25,0s.07-.18,0-.24c-.07-.06-.2-.03-.22,.06v.02Z"/>
            <path class="cls-8" d="M161.31,252.28c.07-.08-.01-.21-.11-.25-.1-.03-.22,0-.32-.03-.11-.02-.21-.09-.26-.19-.03-.06-.05-.13-.01-.18,.02-.04,.06-.06,.1-.08,.19-.09,.4-.16,.62-.14,.21,.02,.42,.16,.47,.37,.04,.14,0,.31-.12,.41-.11,.1-.27,.14-.41,.1h.04Z"/>
            <path class="cls-8" d="M84.97,207.11c.07-.08-.01-.21-.11-.25-.1-.03-.22,0-.32-.03-.11-.02-.21-.09-.26-.19-.03-.06-.05-.13-.01-.18,.02-.04,.06-.06,.1-.08,.19-.09,.4-.16,.62-.14,.21,.02,.42,.16,.47,.37,.04,.14,0,.31-.12,.41-.11,.1-.27,.14-.41,.1h.04Z"/>
            <path class="cls-8" d="M93.77,199.16c-.12,.07-.14,.24-.06,.36,.07,.11,.22,.16,.35,.15,.06,0,.13-.04,.13-.1,0-.04-.03-.07-.06-.1-.12-.12-.23-.23-.35-.35v.05Z"/>
            <path class="cls-8" d="M88.19,202.66c-.32-.12-.7-.11-1.01,.04-.05,.03-.11,.06-.13,.12-.04,.13,.13,.21,.24,.29,.18,.14,.23,.4,.41,.54,.15,.11,.35,.11,.53,.1,.27-.01,.62-.11,.62-.37,0-.14-.1-.25-.2-.35-.22-.19-.47-.35-.74-.47l.28,.11Z"/>
            <path class="cls-8" d="M82.36,193.92c-.15-.15-.39,.03-.52,.2-.08,.1-.17,.23-.13,.36,.05,.17,.27,.21,.45,.21,.15,0,.31,0,.46,0,.07,0,.15,0,.19-.05,.04-.05,.04-.11,.03-.17-.03-.3-.12-.6-.27-.87l-.21,.32Z"/>
            <path class="cls-8" d="M87.92,189.93c-1.21-1.43-2.75,.14-2.04,1.57,.75,1.5,3.09-.33,2.04-1.57Z"/>
            <path class="cls-8" d="M163.13,247.73c.25-.11,.58,.1,.59,.37-.2,.06-.42,.12-.62,.05-.2-.06-.36-.3-.26-.49l.35-.14-.05,.2Z"/>
            <path class="cls-8" d="M119.63,182.03c0,.1,0,.2,0,.3,.35-.04,.72,0,1.06,.11,.17,.05,.34,.13,.52,.15,.18,.02,.38-.03,.48-.18,.19-.27-.06-.65-.34-.82-.36-.22-.82-.31-1.21-.17s-.71,.54-.68,.96c.14,0,.28,0,.42,0l-.24-.36Z"/>
            <path class="cls-8" d="M169.57,250.78c-.13,.05-.08,.15,.05,.2,.14,.04,.31,.05,.48,.04,.37,0,.74,0,1.11,0,.21,0,.46-.01,.56-.1,.08-.07,0-.17-.15-.22-.15-.05-.33-.07-.51-.08-.59-.04-1.32-.03-1.63,.21,.09,.04,.19,.08,.28,.11l-.18-.16Z"/>
            <path class="cls-8" d="M169.35,252.8c.03-.05,.12-.05,.16-.01,.05,.04,.07,.1,.08,.17,0,.05,.01,.1,0,.15-.03,.09-.14,.15-.24,.14s-.18-.09-.22-.18c-.02-.05-.02-.1,0-.14,.02-.04,.08-.07,.12-.05l.1-.07Z"/>
            <path class="cls-8" d="M188.01,251.28c-.41,.4-.59,1.01-.46,1.57,.55,.15,1.18,.11,1.62-.26,.43-.37,.55-1.11,.15-1.51-.4-.4-1.26-.14-1.27,.42l-.03-.23Z"/>
            <path class="cls-8" d="M188.48,255.19c-.09,.14,.12,.31,.27,.26,.16-.06,.23-.23,.3-.38-.2-.11-.47-.09-.64,.05l.07,.07Z"/>
            <path class="cls-8" d="M197.48,263.03c.05-.06,.15-.05,.21,0,.06,.05,.07,.14,.07,.22,0,.05-.01,.09-.04,.13-.06,.09-.2,.11-.28,.04-.08-.07-.09-.2-.03-.29s.2-.1,.29-.04l-.22-.07Z"/>
            <path class="cls-8" d="M189.11,257.15c.08-.08,.21-.11,.32-.07s.19,.15,.19,.26c0,.08-.05,.17-.13,.16-.03,0-.06-.03-.09-.05-.11-.09-.23-.18-.34-.28,.02-.02,.04-.03,.06-.05v.02Z"/>
            <path class="cls-8" d="M191.27,257.86c.08,.12,.26,.1,.4,.07,.14-.04,.31-.07,.41,.02,.03,.03,.05,.07,.05,.1-.01,.1-.16,.1-.25,.13-.08,.03-.14,.09-.2,.13-.16,.1-.39,.09-.54-.03-.04-.09-.02-.21,.05-.29,.07-.08,.19-.1,.28-.07l-.19-.06Z"/>
            <path class="cls-8" d="M190.79,259.22c-.01,.05-.02,.11-.03,.16,.07,.06,.18,.06,.25,0s.07-.18,0-.24c-.07-.06-.2-.03-.22,.06v.02Z"/>
            <path class="cls-8" d="M193.79,261.68c-.01,.05-.02,.11-.03,.16,.07,.06,.18,.06,.25,0,.07-.06,.07-.18,0-.24-.07-.06-.2-.03-.22,.06v.02Z"/>
            <path class="cls-8" d="M193.26,256.59c-.13,.05-.08,.15,.05,.2,.14,.04,.31,.05,.48,.04,.37,0,.74,0,1.11,0,.21,0,.46-.01,.56-.1,.08-.07,0-.17-.15-.22-.15-.05-.33-.07-.51-.08-.59-.04-1.32-.03-1.63,.21,.09,.04,.19,.08,.28,.11l-.18-.16Z"/>
            <path class="cls-8" d="M193.04,258.62c.03-.05,.12-.05,.16-.01s.07,.1,.08,.17c0,.05,.01,.1,0,.15-.03,.09-.14,.15-.24,.14s-.18-.09-.22-.18c-.02-.05-.02-.1,0-.14,.02-.04,.08-.07,.12-.05l.1-.07Z"/>
            <path class="cls-8" d="M286.7,316.32c-.41,.4-.59,1.01-.46,1.57,.55,.15,1.18,.11,1.61-.26,.43-.37,.55-1.11,.15-1.51-.4-.4-1.26-.14-1.27,.42l-.03-.23Z"/>
            <path class="cls-8" d="M287.16,320.23c-.09,.14,.12,.31,.27,.26,.16-.06,.23-.23,.3-.38-.2-.11-.47-.09-.64,.05l.07,.07Z"/>
            <path class="cls-8" d="M296.17,328.07c.05-.06,.15-.05,.21,0,.06,.05,.07,.14,.07,.22,0,.05-.01,.09-.04,.13-.06,.09-.2,.11-.28,.04s-.09-.2-.03-.29c.07-.08,.2-.1,.29-.04l-.22-.07Z"/>
            <path class="cls-8" d="M287.79,322.19c.08-.08,.21-.11,.32-.07,.11,.04,.19,.15,.19,.26,0,.08-.05,.17-.13,.16-.03,0-.06-.03-.09-.05-.11-.09-.23-.18-.34-.28,.02-.02,.04-.03,.06-.05v.02Z"/>
            <path class="cls-8" d="M289.95,322.9c.08,.12,.26,.1,.4,.07,.14-.04,.31-.07,.41,.02,.03,.03,.05,.06,.05,.1-.01,.1-.16,.1-.25,.13-.08,.03-.14,.09-.2,.13-.16,.1-.39,.09-.54-.03-.04-.09-.02-.21,.05-.29,.07-.08,.19-.1,.28-.07l-.19-.06Z"/>
            <path class="cls-8" d="M289.48,324.26c-.01,.05-.02,.11-.03,.16,.07,.06,.18,.06,.25,0s.07-.18,0-.24c-.07-.06-.2-.03-.22,.06v.02Z"/>
            <path class="cls-8" d="M292.47,326.72c-.01,.05-.02,.11-.03,.16,.07,.06,.18,.06,.25,0,.07-.06,.07-.18,0-.24-.07-.06-.2-.03-.22,.06v.02Z"/>
            <path class="cls-8" d="M291.94,321.63c-.13,.05-.08,.15,.05,.2,.14,.04,.31,.05,.48,.04,.37,0,.74,0,1.11,0,.21,0,.46-.01,.56-.1,.08-.07,0-.17-.15-.22-.15-.05-.33-.07-.51-.08-.59-.04-1.32-.03-1.63,.21,.09,.04,.19,.08,.28,.11l-.18-.16Z"/>
            <path class="cls-8" d="M291.72,323.66c.03-.05,.12-.05,.16-.01s.07,.1,.08,.17c0,.05,.01,.1,0,.15-.03,.09-.14,.15-.24,.14-.1-.01-.18-.09-.22-.18-.02-.05-.02-.1,0-.14,.02-.04,.08-.07,.12-.05l.1-.07Z"/>
            <path class="cls-8" d="M161.29,258.15c-.27,.05-.54,.13-.79,.24,0,.07,.05,.14,.1,.19,.3,.27,.85,.19,1.06-.15,.03-.05,.06-.11,.05-.17-.01-.08-.09-.13-.17-.14-.08-.01-.16,.01-.24,.03h-.01Z"/>
            <path class="cls-8" d="M162.82,253.94c0,.06-.02,.11-.03,.17,.09,.02,.18,.05,.26,0,.08-.04,.11-.17,.03-.21-.03-.01-.07-.01-.1,0-.11,.01-.21,.02-.32,.04h.16Z"/>
            <path class="cls-8" d="M240.83,300.18c-.76,.64-1.37,1.46-1.76,2.37-.06,.15-.12,.3-.12,.46,0,.31,.24,.57,.5,.73,.65,.39,1.54,.28,2.12-.2,.59-.48,.87-1.28,.8-2.03-.04-.41-.19-.84-.52-1.1-.32-.26-.84-.3-1.14-.02,0,.13,.19,.22,.3,.13l-.18-.34Z"/>
            <path class="cls-8" d="M250.86,294.55c-.41,.4-.59,1.01-.46,1.57,.55,.15,1.18,.11,1.62-.26,.43-.37,.55-1.11,.15-1.51-.4-.4-1.26-.14-1.27,.42l-.03-.23Z"/>
            <path class="cls-8" d="M249.32,299.71c-.06,.18-.1,.37-.1,.57,0,.02,0,.05,.01,.07,.01,.02,.04,.03,.07,.03,.2,.02,.4-.22,.56-.12,.03,.02,.06,.05,.09,.05,.06,0,.08-.08,.07-.14-.05-.31-.43-.51-.71-.38,.01-.03,.02-.05,.04-.08h-.03Z"/>
            <path class="cls-8" d="M246.56,301.75c-.18,.19-.27,.47-.23,.73,.12,0,.24-.02,.35-.07,.11-.05,.19-.17,.18-.28-.02-.16-.19-.25-.34-.31,.04-.02,.08-.04,.12-.05h-.07Z"/>
            <path class="cls-8" d="M247.57,303.37c-.02,.07-.05,.15-.02,.22,.02,.07,.09,.11,.15,.15,.16,.11,.31,.24,.45,.38-.02-.32-.05-.65-.07-.97,0-.03,0-.05,0-.08,.03-.09,.15-.09,.22-.14,.1-.08,.07-.25,.01-.36-.42-.84-.61,.43-.74,.81Z"/>
            <path class="cls-8" d="M232.39,295.56c.09,.04,.18,.07,.27,.05,.09-.02,.16-.1,.24-.15,.19-.11,.43-.04,.64-.1,.36-.1,.52-.52,.63-.88,.02-.08,.04-.19-.01-.25-.04-.05-.11-.06-.18-.07-.44-.11-.43-.59-.79-.78-.28-.14-.83-.09-1.08,.1-.73,.56-.5,1.76,.28,2.08Z"/>
            <path class="cls-8" d="M248.25,299.02c-.02-.08,0-.16,.02-.24,.17,.11,.21,.34,.23,.55,0,.11,0,.26-.11,.3-.07,.03-.16,0-.24,0-.16,.01-.34,.16-.46,.05-.07-.06-.06-.17-.02-.25,.05-.08,.13-.12,.21-.17,.17-.1,.34-.2,.51-.3l-.15,.04Z"/>
            <path class="cls-8" d="M251.32,298.46c-.09,.14,.12,.31,.27,.26,.16-.06,.23-.23,.3-.38-.2-.11-.47-.09-.64,.06l.07,.07Z"/>
            <path class="cls-8" d="M250.35,300.74c-.03,.08-.06,.15-.05,.24s.05,.17,.13,.19c.13,.04,.24-.1,.37-.12,.13-.02,.28,.07,.4,0,.12-.07,.11-.25,.01-.34-.09-.09-.23-.12-.37-.13-.12-.01-.24-.01-.35,.04s-.18,.18-.15,.29v-.16Z"/>
            <path class="cls-8" d="M250.06,301.78c.05-.06,.15-.05,.21,0s.07,.14,.07,.22c0,.05-.01,.09-.04,.13-.06,.09-.2,.11-.28,.04-.08-.07-.09-.2-.03-.29,.07-.08,.2-.1,.29-.04l-.22-.07Z"/>
            <path class="cls-8" d="M260.33,306.3c.05-.06,.15-.05,.21,0,.06,.05,.07,.14,.07,.22,0,.05-.01,.09-.04,.13-.06,.09-.2,.11-.28,.04-.08-.07-.09-.2-.03-.29,.07-.08,.2-.1,.29-.04l-.22-.07Z"/>
            <path class="cls-8" d="M249.04,301.54c-.15-.07-.35,.09-.31,.25,.08,.03,.17,.06,.25,.04,.08-.02,.16-.1,.16-.18,0-.09-.11-.16-.18-.11h.09Z"/>
            <path class="cls-8" d="M251.96,300.42c.08-.08,.21-.11,.32-.07,.11,.04,.19,.15,.19,.26,0,.08-.05,.17-.13,.16-.03,0-.06-.03-.09-.05-.11-.09-.23-.18-.34-.28,.02-.02,.04-.03,.06-.05v.02Z"/>
            <path class="cls-8" d="M254.11,301.13c.08,.12,.26,.1,.4,.07,.14-.04,.31-.07,.41,.02,.03,.03,.05,.06,.05,.1-.01,.1-.16,.1-.25,.13-.08,.03-.14,.09-.2,.13-.16,.1-.39,.09-.54-.03-.04-.09-.02-.21,.05-.29,.07-.08,.19-.1,.28-.07l-.19-.06Z"/>
            <path class="cls-8" d="M253.64,302.49c-.01,.05-.02,.11-.03,.16,.07,.06,.18,.06,.25,0,.07-.06,.07-.18,0-.24-.07-.06-.2-.03-.22,.06v.02Z"/>
            <path class="cls-8" d="M256.63,304.95c-.01,.05-.02,.11-.03,.16,.07,.06,.18,.06,.25,0,.07-.06,.07-.18,0-.24-.07-.06-.2-.03-.22,.06v.02Z"/>
            <path class="cls-8" d="M247.85,301.36c.07-.08-.01-.21-.11-.25-.1-.03-.22,0-.32-.03-.11-.02-.21-.09-.26-.19-.03-.06-.05-.13-.01-.18,.02-.04,.06-.06,.1-.08,.19-.09,.4-.16,.62-.13,.21,.02,.42,.16,.47,.37,.04,.14,0,.31-.12,.41-.11,.1-.27,.14-.41,.1h.04Z"/>
            <path class="cls-8" d="M249.66,296.81c.25-.11,.58,.1,.59,.37-.2,.06-.42,.12-.62,.05s-.36-.3-.26-.49l.35-.14-.05,.2Z"/>
            <path class="cls-8" d="M256.1,299.86c-.13,.05-.08,.15,.05,.2,.14,.04,.31,.05,.48,.04,.37,0,.74,0,1.11,0,.21,0,.46-.01,.56-.1,.08-.07,0-.17-.15-.22-.15-.05-.33-.07-.51-.08-.59-.04-1.32-.03-1.63,.21,.09,.04,.19,.08,.28,.11l-.18-.16Z"/>
            <path class="cls-8" d="M255.88,301.89c.03-.05,.12-.05,.16-.01,.05,.04,.07,.1,.08,.17,0,.05,.01,.1,0,.15-.03,.09-.14,.15-.24,.14s-.18-.09-.22-.18c-.02-.05-.02-.1,0-.14,.02-.04,.08-.07,.12-.05l.1-.07Z"/>
            <path class="cls-8" d="M247.82,307.23c-.27,.05-.54,.13-.79,.24,0,.07,.05,.14,.1,.19,.3,.27,.85,.19,1.06-.15,.03-.05,.06-.11,.05-.17-.01-.08-.09-.13-.17-.14-.08-.01-.16,.01-.24,.03h-.01Z"/>
            <path class="cls-8" d="M249.35,303.02c0,.06-.02,.11-.03,.17,.09,.02,.18,.05,.26,0,.08-.04,.11-.17,.03-.21-.03-.01-.07-.01-.1,0-.11,.01-.21,.02-.32,.04h.16Z"/>
            <path class="cls-8" d="M91.46,198.79c-.07,.12-.15,.25-.17,.39-.02,.14,.03,.3,.15,.37,.06,.03,.14,.04,.2,.03,.21-.04,.36-.27,.31-.48-.05-.21-.29-.34-.49-.28v-.02Z"/>
            <path class="cls-8" d="M84.38,200.4c-.03-.2,.22-.38,.4-.28,.05,.1,.07,.21,.08,.32-.12,.04-.25,.02-.36-.03l-.11-.02Z"/>
            <path class="cls-8" d="M84.77,196.83c-.12,.05,0,.25,.12,.21,.12-.04,.15-.2,.12-.32-.11-.01-.23,.06-.27,.17l.04-.05Z"/>
            <path class="cls-8" d="M99.43,189.4v.29c.08,.02,.16,.02,.23,0,.05-.13-.04-.3-.17-.34l-.06,.05Z"/>
            <path class="cls-8" d="M78.24,177.02c0,.1,0,.19,0,.29,.07,.02,.15,.02,.22,0,.05-.13-.04-.3-.17-.34l-.06,.05Z"/>
            <path class="cls-8" d="M87.34,185.77c-.09-.33,0-.7,.24-.94,.03-.03,.06-.06,.1-.07,.06,0,.12,.04,.16,.09,.26,.27,.54,.64,.38,.98-.14,.29-.62,.32-.8,.05,.03-.1,.07-.2,.1-.3l-.19,.18Z"/>
            <path class="cls-8" d="M133.76,258.71c-.09-.33,0-.7,.24-.94,.03-.03,.06-.06,.1-.07,.06,0,.12,.04,.16,.09,.26,.27,.54,.64,.38,.98-.14,.29-.62,.32-.8,.05,.03-.1,.07-.2,.1-.3l-.19,.18Z"/>
            <path class="cls-8" d="M35.68,319.88c-.76,.64-1.37,1.46-1.76,2.37-.06,.15-.12,.3-.12,.46,0,.31,.24,.57,.5,.73,.65,.39,1.54,.28,2.12-.2,.59-.48,.87-1.28,.8-2.03-.04-.41-.19-.84-.52-1.1s-.84-.3-1.14-.02c0,.13,.19,.22,.3,.13l-.18-.34Z"/>
            <path class="cls-8" d="M45.71,314.25c-.41,.4-.59,1.01-.46,1.57,.55,.15,1.18,.11,1.61-.26s.55-1.11,.15-1.51c-.4-.4-1.26-.14-1.27,.42l-.03-.23Z"/>
            <path class="cls-8" d="M44.18,319.41c-.06,.18-.1,.37-.1,.57,0,.02,0,.05,.01,.07,.01,.02,.04,.03,.07,.03,.2,.02,.4-.22,.56-.12,.03,.02,.06,.05,.09,.05,.06,0,.08-.08,.07-.14-.05-.31-.43-.51-.71-.38l.04-.08h-.03Z"/>
            <path class="cls-8" d="M41.42,321.45c-.18,.19-.27,.47-.23,.73,.12,0,.24-.02,.35-.07,.11-.05,.19-.17,.18-.28-.02-.16-.19-.25-.34-.31,.04-.02,.08-.04,.12-.05h-.07Z"/>
            <path class="cls-8" d="M42.43,323.07c-.02,.07-.05,.15-.02,.22,.02,.07,.09,.11,.15,.15,.16,.11,.31,.24,.45,.38-.02-.33-.05-.65-.07-.97,0-.03,0-.05,0-.08,.03-.09,.15-.09,.22-.14,.1-.08,.07-.25,.01-.36-.42-.84-.61,.43-.74,.81Z"/>
            <path class="cls-8" d="M27.25,315.26c.09,.04,.18,.07,.27,.05,.09-.02,.16-.1,.24-.15,.19-.11,.43-.04,.64-.1,.36-.1,.52-.52,.63-.88,.02-.08,.04-.19-.01-.25-.04-.05-.11-.06-.18-.07-.44-.11-.43-.59-.79-.78-.28-.14-.83-.09-1.08,.1-.73,.56-.5,1.76,.28,2.08Z"/>
            <path class="cls-8" d="M43.1,318.71c-.02-.08,0-.16,.02-.24,.17,.11,.21,.34,.22,.55,0,.11,0,.26-.11,.3-.07,.03-.16,0-.24,0-.16,.01-.34,.16-.46,.05-.07-.06-.06-.17-.02-.25,.05-.08,.13-.12,.21-.17,.17-.1,.34-.2,.51-.3l-.15,.04Z"/>
            <path class="cls-8" d="M46.18,318.16c-.09,.14,.12,.31,.27,.26,.16-.06,.23-.23,.3-.38-.2-.11-.47-.09-.64,.06l.07,.07Z"/>
            <path class="cls-8" d="M45.21,320.43c-.03,.08-.06,.15-.05,.24s.05,.17,.13,.19c.13,.04,.24-.1,.37-.12,.13-.02,.28,.07,.4,0,.12-.07,.11-.25,.01-.34-.09-.09-.23-.12-.37-.13-.12-.01-.24-.01-.35,.04-.11,.05-.18,.18-.15,.29v-.16Z"/>
            <path class="cls-8" d="M44.91,321.47c.05-.06,.15-.05,.21,0,.06,.05,.07,.14,.07,.22,0,.05-.01,.09-.04,.13-.06,.09-.2,.11-.28,.04s-.09-.2-.03-.29,.2-.1,.29-.04l-.22-.07Z"/>
            <path class="cls-8" d="M55.18,325.99c.05-.06,.15-.05,.21,0,.06,.05,.07,.14,.07,.22,0,.05-.01,.09-.04,.13-.06,.09-.2,.11-.28,.04s-.09-.2-.03-.29,.2-.1,.29-.04l-.22-.07Z"/>
            <path class="cls-8" d="M43.89,321.23c-.15-.07-.35,.09-.31,.25,.08,.03,.17,.06,.25,.04s.16-.1,.16-.18-.11-.16-.18-.11h.09Z"/>
            <path class="cls-8" d="M46.81,320.12c.08-.08,.21-.11,.32-.07,.11,.04,.19,.15,.19,.26,0,.08-.05,.17-.13,.16-.03,0-.06-.03-.09-.05-.11-.09-.23-.18-.34-.28l.06-.05v.02Z"/>
            <path class="cls-8" d="M48.97,320.83c.08,.12,.26,.1,.4,.07,.14-.04,.31-.08,.41,.02,.03,.03,.05,.06,.05,.1-.01,.1-.16,.1-.25,.13-.08,.03-.14,.09-.2,.13-.16,.1-.39,.09-.54-.03-.04-.09-.02-.21,.05-.29,.07-.08,.19-.1,.28-.07l-.19-.06Z"/>
            <path class="cls-8" d="M48.49,322.18c-.01,.05-.02,.11-.03,.16,.07,.06,.18,.06,.25,0,.07-.06,.07-.18,0-.24-.07-.06-.2-.03-.22,.06v.02Z"/>
            <path class="cls-8" d="M51.48,324.65c-.01,.05-.02,.11-.03,.16,.07,.06,.18,.06,.25,0s.07-.18,0-.24c-.07-.06-.2-.03-.22,.06v.02Z"/>
            <path class="cls-8" d="M42.7,321.06c.07-.08-.01-.21-.11-.25-.1-.03-.22,0-.32-.03-.11-.02-.21-.09-.26-.19-.03-.06-.05-.13-.01-.18,.02-.04,.06-.06,.1-.08,.19-.09,.4-.16,.62-.14s.42,.16,.47,.37c.04,.14,0,.31-.12,.41-.11,.1-.27,.14-.41,.1h.04Z"/>
            <path class="cls-8" d="M44.51,316.51c.25-.11,.58,.1,.59,.37-.2,.06-.42,.12-.62,.05-.2-.06-.36-.3-.26-.49l.35-.14-.05,.2Z"/>
            <path class="cls-8" d="M50.96,319.55c-.13,.05-.08,.15,.05,.2s.31,.05,.48,.04c.37,0,.74,0,1.11,0,.21,0,.46-.01,.56-.1,.08-.07,0-.17-.15-.22-.15-.05-.33-.07-.51-.08-.59-.04-1.32-.03-1.63,.21,.09,.04,.19,.08,.28,.11l-.18-.16Z"/>
            <path class="cls-8" d="M50.74,321.58c.03-.05,.12-.05,.16-.01,.05,.04,.07,.1,.08,.17,0,.05,.01,.1,0,.15-.03,.09-.14,.15-.24,.14s-.18-.09-.22-.18c-.02-.05-.02-.1,0-.14,.02-.04,.08-.07,.12-.05l.1-.07Z"/>
            <path class="cls-8" d="M69.4,320.06c-.41,.4-.59,1.01-.46,1.57,.55,.15,1.18,.11,1.61-.26s.55-1.11,.15-1.51c-.4-.4-1.26-.14-1.27,.42l-.03-.23Z"/>
            <path class="cls-8" d="M69.86,323.97c-.09,.14,.12,.31,.27,.26,.16-.06,.23-.23,.3-.38-.2-.11-.47-.09-.64,.05l.07,.07Z"/>
            <path class="cls-8" d="M78.87,331.81c.05-.06,.15-.05,.21,0,.06,.05,.07,.14,.07,.22,0,.05-.01,.09-.04,.13-.06,.09-.2,.11-.28,.04-.08-.07-.09-.2-.03-.29s.2-.1,.29-.04l-.22-.07Z"/>
            <path class="cls-8" d="M70.49,325.93c.08-.08,.21-.11,.32-.07,.11,.04,.19,.15,.19,.26,0,.08-.05,.17-.13,.16-.03,0-.06-.03-.09-.05-.11-.09-.23-.18-.34-.28,.02-.02,.04-.03,.06-.05v.02Z"/>
            <path class="cls-8" d="M72.65,326.64c.08,.12,.26,.1,.4,.07,.14-.04,.31-.07,.41,.02,.03,.03,.05,.06,.05,.1-.01,.1-.16,.1-.25,.13-.08,.03-.14,.09-.2,.13-.16,.1-.39,.09-.54-.03-.04-.09-.02-.21,.05-.29,.07-.08,.19-.1,.28-.07l-.19-.06Z"/>
            <path class="cls-8" d="M72.18,327.99c-.01,.05-.02,.11-.03,.16,.07,.06,.18,.06,.25,0s.07-.18,0-.24c-.07-.06-.2-.03-.22,.06v.02Z"/>
            <path class="cls-8" d="M75.17,330.46c-.01,.05-.02,.11-.03,.16,.07,.06,.18,.06,.25,0s.07-.18,0-.24c-.07-.06-.2-.03-.22,.06v.02Z"/>
            <path class="cls-8" d="M74.64,325.37c-.13,.05-.08,.15,.05,.2,.14,.04,.31,.05,.48,.04,.37,0,.74,0,1.11,0,.21,0,.46-.01,.56-.1,.08-.07,0-.17-.15-.22s-.33-.07-.51-.08c-.59-.04-1.32-.03-1.63,.21,.09,.04,.19,.08,.28,.11l-.18-.16Z"/>
            <path class="cls-8" d="M74.42,327.4c.03-.05,.12-.05,.16-.01,.05,.04,.07,.1,.08,.17,0,.05,.01,.1,0,.15-.03,.09-.14,.15-.24,.14s-.18-.09-.22-.18c-.02-.05-.02-.1,0-.14,.02-.04,.08-.07,.12-.05l.1-.07Z"/>
            <path class="cls-8" d="M42.68,326.93c-.27,.05-.54,.13-.79,.24,0,.07,.05,.14,.1,.19,.3,.27,.85,.19,1.06-.15,.03-.05,.06-.11,.05-.17-.01-.08-.09-.13-.17-.14s-.16,.01-.24,.03h-.01Z"/>
            <path class="cls-8" d="M44.2,322.72c0,.06-.02,.11-.03,.17,.09,.02,.18,.05,.26,0,.08-.04,.11-.17,.03-.21-.03-.01-.07-.01-.1,0-.11,.01-.21,.02-.32,.04h.16Z"/>
            <path class="cls-8" d="M15.14,327.49c-.09-.33,0-.69,.24-.94,.03-.03,.06-.06,.1-.07,.06,0,.12,.04,.16,.09,.26,.27,.54,.64,.38,.98-.14,.29-.62,.32-.8,.05,.03-.1,.07-.2,.1-.3l-.19,.18Z"/>
            <path class="cls-8" d="M54.39,238.27c-.96-.25-1.98-.27-2.95-.06-.16,.03-.32,.07-.45,.17-.25,.18-.33,.53-.3,.84,.06,.75,.67,1.41,1.4,1.61,.73,.2,1.54-.04,2.12-.53,.31-.27,.57-.64,.6-1.06,.03-.42-.24-.86-.65-.94-.1,.08-.06,.28,.06,.32l.17-.34Z"/>
            <path class="cls-8" d="M64.8,243.17c-.56-.1-1.17,.11-1.54,.54,.19,.53,.6,1.03,1.15,1.16,.55,.14,1.22-.19,1.31-.75,.09-.56-.62-1.11-1.08-.79l.16-.16Z"/>
            <path class="cls-8" d="M59.71,244.91c-.18,.06-.36,.14-.52,.24-.02,.01-.04,.03-.05,.05,0,.02,0,.05,.01,.07,.1,.17,.41,.19,.42,.39,0,.04,0,.08,.01,.1,.04,.05,.11,.02,.16-.02,.23-.22,.17-.65-.11-.8l.09-.02-.02-.02Z"/>
            <path class="cls-8" d="M56.45,243.86c-.26-.04-.54,.05-.73,.24,.08,.09,.16,.18,.26,.24s.25,.06,.33-.02c.12-.11,.09-.3,.05-.46,.04,.02,.08,.05,.12,.07l-.03-.07Z"/>
            <path class="cls-8" d="M55.72,245.62c-.07,.02-.15,.05-.19,.11-.04,.06-.04,.14-.04,.21,0,.2-.02,.39-.05,.58,.25-.21,.5-.42,.75-.63,.02-.02,.04-.03,.07-.04,.09-.03,.16,.07,.25,.1,.13,.04,.24-.08,.3-.2,.44-.83-.7-.25-1.09-.13Z"/>
            <path class="cls-8" d="M53.25,228.72c.02,.09,.05,.19,.12,.25,.07,.06,.17,.07,.26,.11,.2,.09,.28,.33,.45,.46,.29,.24,.73,.12,1.08,0,.08-.03,.18-.07,.2-.16,.01-.06-.02-.12-.04-.18-.17-.42,.23-.7,.18-1.09-.04-.31-.41-.73-.71-.82-.88-.27-1.72,.62-1.53,1.44Z"/>
            <path class="cls-8" d="M59.65,243.64c.05-.06,.13-.1,.21-.12,.01,.21-.16,.37-.32,.5-.09,.07-.21,.14-.31,.09-.07-.04-.09-.13-.14-.19-.1-.12-.32-.18-.31-.34,0-.09,.1-.15,.19-.16,.09,0,.18,.03,.26,.07,.18,.08,.36,.16,.54,.24l-.12-.1Z"/>
            <path class="cls-8" d="M61.89,245.82c-.17,0-.19,.28-.05,.37,.14,.09,.32,.06,.48,.02-.02-.23-.2-.43-.42-.49v.1Z"/>
            <path class="cls-8" d="M59.48,246.35c-.08,.02-.16,.04-.22,.09-.06,.05-.11,.14-.08,.21,.04,.13,.22,.14,.31,.24,.1,.09,.11,.27,.23,.32,.12,.06,.26-.06,.29-.19,.02-.13-.04-.26-.11-.38-.06-.1-.13-.21-.23-.26s-.25-.05-.32,.05l.13-.09Z"/>
            <path class="cls-8" d="M58.46,246.72c.08,0,.13,.1,.12,.17-.01,.08-.07,.14-.14,.18-.04,.02-.08,.04-.13,.05-.11,0-.2-.1-.2-.2s.11-.19,.22-.19c.11,0,.2,.1,.2,.21l-.08-.22Z"/>
            <path class="cls-8" d="M60.75,257.7c.08,0,.13,.1,.12,.17-.01,.08-.07,.14-.14,.18-.04,.02-.08,.04-.13,.05-.11,0-.2-.1-.2-.2,0-.11,.11-.19,.22-.19,.11,0,.2,.1,.2,.21l-.08-.22Z"/>
            <path class="cls-8" d="M58.06,245.74c-.03-.16-.27-.24-.38-.11,.02,.08,.05,.17,.12,.23,.07,.06,.17,.07,.24,.02s.07-.18-.01-.21l.04,.08Z"/>
            <path class="cls-8" d="M60.66,247.47c.11,.02,.21,.11,.24,.22,.03,.11-.01,.24-.1,.31-.06,.05-.17,.06-.21,0-.02-.03-.01-.06-.01-.1,0-.15,.02-.29,.03-.44l.07,.02h-.02Z"/>
            <path class="cls-8" d="M61.34,249.64c-.05,.13,.07,.27,.18,.36s.24,.2,.22,.35c0,.04-.02,.08-.06,.1-.09,.05-.17-.07-.25-.13-.07-.05-.15-.06-.22-.09-.18-.07-.3-.27-.29-.46,.05-.09,.16-.14,.26-.13,.1,.01,.19,.09,.22,.19l-.06-.19Z"/>
            <path class="cls-8" d="M59.96,250.04c-.05,.02-.1,.04-.15,.07,0,.09,.06,.18,.15,.2,.09,.02,.19-.05,.2-.14,0-.09-.09-.17-.18-.14h-.01Z"/>
            <path class="cls-8" d="M59.7,253.91c-.05,.02-.1,.04-.15,.07,0,.09,.06,.18,.15,.2,.09,.02,.19-.05,.2-.14,0-.09-.09-.17-.18-.14h-.02Z"/>
            <path class="cls-8" d="M57.51,244.67c.11,.01,.17-.13,.14-.24s-.12-.18-.16-.28c-.05-.1-.04-.22,0-.32,.03-.06,.08-.11,.14-.12,.04,0,.08,.02,.12,.04,.19,.1,.36,.24,.47,.42,.1,.19,.11,.44-.02,.6-.1,.11-.25,.17-.4,.14-.15-.03-.27-.14-.32-.28l.03,.03Z"/>
            <path class="cls-8" d="M62.27,243.51c.24,.14,.26,.53,.04,.7-.17-.13-.34-.27-.41-.48-.07-.2,.04-.47,.25-.5,.1,.07,.21,.13,.31,.2l-.19,.08Z"/>
            <path class="cls-8" d="M63.53,250.52c-.11-.08-.17,.02-.13,.16,.04,.14,.15,.28,.24,.42,.22,.3,.43,.6,.65,.9,.12,.17,.28,.37,.4,.39,.11,.03,.14-.1,.09-.25-.04-.15-.14-.31-.23-.46-.31-.51-.75-1.09-1.12-1.2,.02,.1,.05,.19,.07,.29l.02-.24Z"/>
            <path class="cls-8" d="M61.76,251.52c.06,0,.11,.06,.1,.13,0,.06-.05,.11-.09,.16-.04,.04-.08,.07-.12,.08-.1,.03-.21-.02-.25-.11s-.03-.2,.02-.28c.03-.04,.07-.07,.12-.08,.05,0,.1,.02,.11,.07l.11,.04Z"/>
            <path class="cls-8" d="M73.84,265.82c-.56-.1-1.17,.11-1.54,.54,.19,.53,.6,1.03,1.15,1.16,.55,.14,1.22-.19,1.31-.75,.09-.56-.62-1.11-1.08-.79l.16-.16Z"/>
            <path class="cls-8" d="M70.93,268.47c-.17,0-.19,.28-.05,.37,.14,.09,.32,.06,.48,.02-.02-.23-.2-.43-.42-.49v.1Z"/>
            <path class="cls-8" d="M69.79,280.35c.08,0,.13,.1,.12,.17-.01,.08-.07,.14-.14,.18-.04,.02-.08,.04-.13,.05-.11,0-.2-.1-.2-.2s.11-.19,.22-.19c.11,0,.2,.1,.2,.21l-.08-.22Z"/>
            <path class="cls-8" d="M69.7,270.12c.11,.02,.21,.11,.24,.22,.03,.11-.01,.24-.1,.31-.06,.05-.17,.06-.21,0-.02-.03-.01-.06-.01-.1,0-.15,.02-.29,.03-.44l.07,.02h-.02Z"/>
            <path class="cls-8" d="M70.38,272.29c-.05,.13,.07,.27,.18,.36,.11,.09,.24,.2,.22,.35,0,.04-.02,.08-.06,.1-.09,.05-.17-.07-.25-.13-.07-.05-.15-.06-.22-.09-.18-.07-.3-.27-.29-.46,.05-.09,.16-.14,.26-.13,.1,.01,.19,.09,.22,.19l-.06-.19Z"/>
            <path class="cls-8" d="M69,272.69c-.05,.02-.1,.04-.15,.07,0,.09,.06,.18,.15,.2,.09,.02,.19-.05,.2-.14,0-.09-.09-.17-.18-.14h-.02Z"/>
            <path class="cls-8" d="M68.73,276.56c-.05,.02-.1,.04-.15,.07,0,.09,.06,.18,.15,.2,.09,.02,.19-.05,.2-.14,0-.09-.09-.17-.18-.14h-.02Z"/>
            <path class="cls-8" d="M72.57,273.17c-.11-.08-.17,.02-.13,.16s.15,.28,.24,.42c.22,.3,.43,.6,.65,.9,.12,.17,.28,.37,.4,.39,.11,.03,.14-.1,.09-.25s-.14-.31-.23-.46c-.31-.51-.75-1.09-1.12-1.2,.02,.1,.05,.19,.07,.29l.02-.24Z"/>
            <path class="cls-8" d="M70.79,274.17c.06,0,.11,.06,.1,.13,0,.06-.05,.11-.09,.16-.04,.04-.08,.07-.12,.08-.1,.03-.21-.02-.25-.11-.05-.09-.03-.2,.02-.28,.03-.04,.07-.07,.12-.08,.05,0,.1,.02,.11,.07l.11,.04Z"/>
            <path class="cls-8" d="M52.72,248.06c-.2-.19-.42-.36-.65-.5-.06,.04-.09,.12-.1,.19-.04,.4,.33,.8,.74,.78,.06,0,.12-.02,.17-.06,.06-.06,.05-.15,.02-.22s-.1-.12-.17-.17h0Z"/>
            <path class="cls-8" d="M57.03,246.86c-.05,.03-.1,.05-.15,.08,.03,.08,.07,.17,.15,.22s.2-.01,.19-.1c0-.03-.03-.06-.05-.08-.07-.08-.14-.16-.22-.24l.09,.13Z"/>
            <path class="cls-8" d="M36.26,225.99c.21-.26,.57-.4,.9-.35,.04,0,.08,.02,.11,.05,.04,.05,.04,.12,.02,.18-.07,.37-.2,.82-.57,.88-.32,.06-.62-.32-.51-.62,.1-.03,.2-.06,.3-.09l-.26-.05Z"/>
            <path class="cls-8" d="M54.47,167.96c-.34-.93-.9-1.79-1.62-2.47-.12-.11-.24-.22-.39-.27-.29-.1-.62,.03-.86,.22-.59,.48-.79,1.35-.54,2.06,.25,.72,.9,1.26,1.63,1.45,.4,.11,.85,.11,1.21-.11,.36-.21,.58-.68,.41-1.07-.13-.04-.27,.1-.23,.23l.38-.05Z"/>
            <path class="cls-8" d="M56.3,179.31c-.23-.52-.75-.9-1.31-.97-.33,.46-.51,1.07-.31,1.6,.2,.53,.85,.9,1.36,.66,.51-.24,.57-1.13,.04-1.34l.22,.05Z"/>
            <path class="cls-8" d="M51.99,176.09c-.15-.12-.32-.22-.5-.29-.02,0-.05-.02-.07-.01-.02,0-.04,.03-.05,.05-.09,.18,.07,.45-.08,.57-.03,.02-.07,.04-.08,.07-.02,.06,.05,.1,.11,.12,.31,.06,.63-.23,.6-.54,.02,.02,.04,.04,.06,.06v-.03Z"/>
            <path class="cls-8" d="M51.02,172.8c-.11-.24-.35-.42-.61-.47-.03,.11-.06,.23-.05,.35,.01,.12,.09,.24,.2,.26,.16,.04,.3-.09,.41-.22,0,.04,0,.09,0,.13l.03-.07Z"/>
            <path class="cls-8" d="M49.15,173.19c-.06-.05-.12-.09-.2-.09-.07,0-.13,.04-.19,.09-.16,.11-.33,.21-.51,.29,.31,.09,.63,.18,.94,.27,.02,0,.05,.01,.07,.03,.07,.06,.03,.17,.06,.26,.04,.13,.21,.15,.34,.14,.94-.11-.19-.72-.51-.97Z"/>
            <path class="cls-8" d="M61.71,161.63c-.06,.07-.13,.14-.14,.24,0,.09,.04,.18,.05,.27,.04,.21-.11,.42-.13,.64-.03,.38,.31,.67,.61,.89,.07,.05,.16,.11,.24,.07,.06-.02,.09-.09,.13-.14,.25-.38,.71-.2,1-.47,.23-.21,.37-.75,.28-1.05-.28-.88-1.48-1.07-2.05-.45Z"/>
            <path class="cls-8" d="M53.01,175.33c.08,.01,.16,.05,.21,.1-.16,.13-.4,.08-.59,.02-.11-.03-.24-.09-.25-.21,0-.08,.05-.15,.07-.23,.05-.15-.03-.37,.11-.45,.08-.04,.18,0,.24,.07,.05,.07,.07,.16,.09,.25,.03,.19,.07,.39,.1,.58l.02-.15Z"/>
            <path class="cls-8" d="M52.47,178.4c-.1-.14-.34,0-.34,.17,0,.17,.13,.3,.26,.41,.18-.15,.25-.41,.17-.62l-.09,.05Z"/>
            <path class="cls-8" d="M50.67,176.71c-.06-.05-.13-.11-.2-.13-.08-.02-.17-.01-.22,.05-.08,.11,0,.26-.02,.39-.02,.13-.16,.24-.14,.37,.02,.13,.2,.18,.32,.13,.12-.06,.19-.18,.25-.3,.05-.11,.1-.22,.08-.34-.01-.12-.1-.23-.22-.24l.15,.06Z"/>
            <path class="cls-8" d="M49.8,176.08c.04,.07,0,.16-.08,.19-.07,.03-.16,.02-.23-.01-.04-.02-.08-.04-.11-.08-.06-.08-.04-.22,.06-.28,.09-.05,.22-.02,.28,.07s.03,.22-.06,.29l.14-.19Z"/>
            <path class="cls-8" d="M50.37,175.2c.12-.11,.04-.36-.12-.38-.06,.06-.11,.14-.12,.22,0,.09,.04,.18,.12,.21,.08,.03,.19-.05,.17-.13l-.04,.08Z"/>
            <path class="cls-8" d="M50.42,178.32c.05,.1,.03,.24-.04,.32-.08,.09-.2,.12-.31,.09-.08-.02-.15-.11-.11-.18,.02-.03,.05-.05,.07-.06,.13-.07,.25-.15,.38-.22,0,.02,.02,.05,.03,.07v-.02Z"/>
            <path class="cls-8" d="M49.01,180.1c-.14,.03-.19,.21-.2,.35-.01,.14-.03,.31-.16,.38-.03,.02-.08,.03-.11,0-.09-.05-.04-.18-.04-.28,0-.08-.03-.16-.05-.24-.04-.19,.05-.4,.22-.5,.1,0,.21,.05,.25,.14s.03,.21-.03,.29l.12-.16Z"/>
            <path class="cls-8" d="M47.9,179.19s-.09-.06-.14-.09c-.08,.05-.12,.15-.08,.24,.03,.08,.15,.13,.23,.08,.08-.05,.09-.18,.02-.23h-.02Z"/>
            <path class="cls-8" d="M50.95,174.14c.05,.1,.2,.06,.27-.02s.08-.2,.14-.29c.06-.09,.16-.16,.27-.18,.06,0,.14,0,.18,.05,.03,.03,.03,.08,.04,.12,.02,.21,.01,.43-.09,.62-.1,.19-.3,.34-.51,.32-.15-.01-.28-.11-.34-.25-.06-.14-.04-.3,.05-.42v.04Z"/>
            <path class="cls-8" d="M54.59,177.41c.02,.27-.29,.52-.55,.43,.01-.21,.03-.44,.16-.61s.41-.24,.55-.08c0,.12,0,.25,0,.37l-.17-.12Z"/>
            <path class="cls-8" d="M49.52,182.41c0-.14-.11-.13-.2-.02-.09,.11-.15,.28-.21,.43-.13,.35-.25,.7-.38,1.04-.07,.2-.15,.44-.1,.56,.04,.1,.16,.06,.26-.06s.18-.29,.25-.45c.24-.54,.48-1.23,.36-1.6l-.2,.22,.21-.12Z"/>
            <path class="cls-8" d="M47.69,181.5s0,.13-.05,.16c-.05,.03-.12,.03-.18,.01-.05,0-.1-.02-.14-.06-.08-.06-.1-.18-.05-.27,.05-.09,.15-.14,.25-.14,.05,0,.1,.01,.13,.05,.03,.04,.04,.1,0,.13l.03,.11Z"/>
            <path class="cls-8" d="M45.45,172.1c.04-.27,.06-.55,.05-.82-.07-.03-.15,0-.21,.03-.36,.19-.47,.73-.23,1.05,.04,.05,.08,.09,.14,.1,.08,.01,.16-.04,.19-.11,.04-.07,.04-.15,.05-.23h0Z"/>
            <path class="cls-8" d="M48.87,174.98c-.05-.03-.1-.06-.15-.08-.05,.07-.11,.15-.1,.24,.01,.09,.13,.16,.19,.1,.02-.02,.03-.06,.04-.09,.02-.1,.05-.21,.07-.31l-.06,.15Z"/>
            <path class="cls-8" d="M54.39,146.05c.34,.03,.65,.24,.8,.55,.02,.04,.03,.08,.03,.12-.01,.06-.08,.1-.14,.12-.34,.15-.79,.29-1.05,.02-.23-.23-.09-.69,.23-.77,.08,.07,.16,.13,.24,.2l-.11-.24Z"/>
          </g>
          <ellipse class="cls-2" cx="82.12" cy="124.12" rx="36.35" ry="25.91"/>
          <ellipse class="cls-4" cx="234.21" cy="279.12" rx="19.81" ry="27.78" transform="translate(-77.47 467.85) rotate(-81.2)"/>
          <ellipse class="cls-1" cx="288.6" cy="294.34" rx="19.81" ry="27.78" transform="translate(-46.45 534.49) rotate(-81.2)"/>
          <polygon class="cls-7" points="30.08 212.45 40.32 216.65 46.1 229.93 42.5 214.75 33 210.95 30.08 212.45"/>
          <polygon class="cls-7" points="14.85 248.32 20.5 261.38 19.5 265.44 13.83 261.38 9 278.36 0 285.01 0 258.36 10.02 253.29 14.85 248.32"/>
          <path class="cls-7" d="M34.5,286.1s16.42-6.03,22.15-5.87c13.1,.38,21.49,4.77,21.49,4.77l-19.32,8.65-24.31-7.54Z"/>
          <polygon class="cls-7" points="46.32 159.33 48.27 166.85 41.05 165 46.32 159.33"/>
          <polygon class="cls-10" points="34.5 286.1 27.25 296.97 26.22 294.16 16.75 313.67 9 278.36 0 285.01 0 349.97 50.65 349.74 51.4 337.63 50.65 334.77 50.65 324.1 48.5 307.69 58.81 293.65 34.5 286.1"/>
          <polygon class="cls-24" points="57.31 293.18 53.84 300.42 60.75 295.42 61.04 292.65 66.92 290.02 65.25 289.75 59.33 292.7 57.31 293.18"/>
          <polygon class="cls-5" points="48.5 307.69 72.48 321.8 68.67 347.04 50.65 349.74 51.4 337.63 50.65 334.77 50.65 324.1 48.5 307.69"/>
          <polygon class="cls-10" points="20.5 261.38 35.5 227.24 30.08 232.33 30.08 227.25 30.08 212.45 14.85 248.32 20.5 261.38"/>
          <polygon class="cls-10" points="13.83 261.38 21.5 280.92 19.5 265.44 13.83 261.38"/>
          <polygon class="cls-10" points="41.05 165 42.8 174.87 41.85 193.47 33 210.95 41.05 165"/>
          <polygon class="cls-24" points="17.67 264.07 19.84 264.07 19.94 268.82 19.5 265.44 17.67 264.07"/>
          <polygon class="cls-24" points="7.65 279.36 9.56 280.92 9.95 275.02 8.8 276.71 7.65 277.77 8.12 278.36 7.65 279.36"/>
          <path class="cls-21" d="M73.69,285.66s-.8,.32-2.07,.79c-3.01,1.12-8.65,3.14-12.43,3.93-3.44,.72-10.6-.89-15.32-2.14-2.67-.71-4.56-1.3-4.56-1.3,0,0,4.84-3.38,16.42-4.44s17.96,3.16,17.96,3.16Z"/>
          <path class="cls-20" d="M71.63,286.44h-.01c-3.01,1.13-8.65,3.15-12.43,3.94-3.44,.72-10.6-.89-15.32-2.14h-.02s4.7-2.97,14.96-3.23c10.27-.26,12.82,1.43,12.82,1.43Z"/>
          <polygon class="cls-10" points="68.39 212.33 58.81 218.85 68.39 214.08 68.39 212.33"/>
          <polygon class="cls-10" points="21.5 232.65 31.59 236.14 37.17 259.48 39.31 259.01 45.32 275.02 39.31 260.19 36.62 260.5 31.02 237.44 21.5 232.65"/>
          <polygon class="cls-10" points="52.6 323.5 57.89 328.94 55.25 328.94 52.6 323.5"/>
          <polygon class="cls-14" points="52.6 323.5 53.43 328.94 57.89 328.94 54.72 327.5 52.6 323.5"/>
          <polygon class="cls-10" points="34.41 279.34 39.88 274.09 39.86 276.73 34.41 279.34"/>
          <polygon class="cls-14" points="34.41 279.34 39.85 278.54 39.88 274.09 38.42 277.25 34.41 279.34"/>
          <polygon class="cls-10" points="47.13 219.05 54.18 221.83 51.77 222.92 47.13 219.05"/>
          <polygon class="cls-14" points="47.13 219.05 50.11 223.66 54.18 221.83 50.7 221.82 47.13 219.05"/>
          <ellipse class="cls-3" cx="56.65" cy="285.86" rx="27.78" ry="19.81" transform="translate(-53.3 15.98) rotate(-10.96)"/>
        </g>
      </g>
    </g>
  </g>
</svg>