<?xml version="1.0" encoding="UTF-8"?>
<svg id="space" xmlns="http://www.w3.org/2000/svg" xmlns:xlink="http://www.w3.org/1999/xlink" viewBox="0 0 900 400">
  <defs>
    <style>
      .cls-1 {
        fill: url(#_Áåçûìÿííûé_ãðàäèåíò_160-2);
      }

      .cls-2 {
        clip-path: url(#clippath);
      }

      .cls-3 {
        fill: none;
      }

      .cls-4 {
        fill: url(#_Áåçûìÿííûé_ãðàäèåíò_160);
      }
    </style>
    <clipPath id="clippath">
      <rect class="cls-3" width="900" height="400"/>
    </clipPath>
    <linearGradient id="_Áåçûìÿííûé_ãðàäèåíò_160" data-name="Áåçûìÿííûé ãðàäèåíò 160" x1="710.63" y1="312.49" x2="710.63" y2="158.42" gradientUnits="userSpaceOnUse">
      <stop offset="0" stop-color="#1c98d6"/>
      <stop offset=".51" stop-color="#3744b5"/>
      <stop offset="1" stop-color="#330995"/>
    </linearGradient>
    <linearGradient id="_Áåçûìÿííûé_ãðàäèåíò_160-2" data-name="Áåçûìÿííûé ãðàäèåíò 160" x1="187.96" y1="302.14" x2="187.96" y2="177.31" xlink:href="#_Áåçûìÿííûé_ãðàäèåíò_160"/>
  </defs>
  <g class="cls-2">
    <polygon class="cls-4" points="852.23 158.42 838.71 175.92 835.71 185.92 835.71 189.42 827.2 202.42 827.2 212.42 820.94 216.67 818.19 222.67 812.68 225.49 808.93 237.67 806.92 239.92 798.41 222.67 792.91 227.42 786.65 228.17 779.39 225.49 768.13 231.42 754.11 228.17 739.84 225.49 735.59 229.17 717.82 212.92 707.31 217.42 707.31 222.17 702.3 235.92 687.28 248.17 672.76 253.17 640.73 269.92 621.45 269.92 605.94 283.25 586.75 286.92 569.03 312.49 852.23 309.51 852.23 158.42"/>
    <polygon class="cls-1" points="431.28 295.42 420.57 289.59 406.56 282.64 406.56 273.17 400.05 276.24 400.05 257.47 395.04 267.45 395.04 289.59 379.17 286.9 369.91 302.01 337.51 301 323.56 262.88 319.84 262.88 313.04 245.33 300.86 237.65 290.35 220.91 267.32 204.11 260.81 190.5 252.3 182.5 252.3 177.31 242.29 182 236.28 231.22 232.28 220.91 225.77 220.67 219.76 206 211.95 201.68 202.84 195.11 202.81 186.01 193.42 200 186.7 200 186.7 203.5 178.19 216.5 178.19 226.5 171.93 230.75 169.18 236.75 163.67 239.57 159.92 251.75 157.91 254 149.4 236.75 143.9 241.5 137.64 242.25 130.38 239.57 119.12 245.5 102.31 231.22 91.31 231.33 86.58 243.25 68.81 227 58.3 231.5 58.3 236.25 53.29 250 38.27 262.25 23.75 267.25 -8.28 284 -27.56 284 -43.08 297.33 -62.26 301 -72.61 302.14 201.24 302.14 203.22 302.14 448.54 302.14 431.28 295.42"/>
  </g>
</svg>