<?xml version="1.0" encoding="UTF-8"?>
<svg xmlns="http://www.w3.org/2000/svg" xmlns:xlink="http://www.w3.org/1999/xlink" viewBox="0 0 900 400">
  <defs>
    <style>
      .cls-1 {
        fill: #190024;
        opacity: .1;
      }

      .cls-1, .cls-2 {
        mix-blend-mode: multiply;
      }

      .cls-3 {
        fill: #e9e9a8;
      }

      .cls-4 {
        isolation: isolate;
      }

      .cls-5, .cls-6, .cls-7 {
        mix-blend-mode: soft-light;
      }

      .cls-8 {
        fill: url(#_Áåçûìÿííûé_ãðàäèåíò_95);
      }

      .cls-6, .cls-7 {
        opacity: .51;
      }

      .cls-2 {
        fill: #974d8b;
        opacity: .5;
      }

      .cls-7, .cls-9 {
        fill: #5fcccc;
      }

      .cls-10 {
        opacity: .71;
      }
    </style>
    <radialGradient id="_Áåçûìÿííûé_ãðàäèåíò_95" data-name="Áåçûìÿííûé ãðàäèåíò 95" cx="208.33" cy="136.62" fx="208.33" fy="136.62" r="136.66" gradientUnits="userSpaceOnUse">
      <stop offset=".59" stop-color="#42218e"/>
      <stop offset="1" stop-color="#8657e8"/>
    </radialGradient>
  </defs>
  <g class="cls-4">
    <g id="space">
      <g class="cls-10">
        <path class="cls-8" d="M290.62,73.51c-.21,7.61-1.67,15.32-4.52,22.82-1.08,2.84-2.31,5.58-3.72,8.2-.2,.39-.42,.79-.64,1.17-4.46,8.03-10.37,14.91-17.26,20.43-2.11,1.7-4.34,3.28-6.63,4.71-4.9,3.07-10.16,5.53-15.64,7.29h-.01c-.39,.13-.76,.26-1.16,.37-14.26,4.36-30.03,4.19-45.06-1.48-13.1-4.96-23.83-13.41-31.54-23.9-4.3-5.82-7.66-12.27-9.97-19.09-1.82-5.35-3-10.93-3.47-16.62-.05-.43-.07-.87-.1-1.29-.63-9.66,.75-19.6,4.39-29.24,.34-.88,.7-1.75,1.06-2.63,1.93-4.54,4.3-8.79,7.02-12.7,1.31-1.89,2.72-3.7,4.21-5.43,.24-.29,.48-.58,.74-.87,4.36-4.93,9.37-9.18,14.84-12.64,.39-.26,.78-.49,1.17-.72,1.07-.66,2.16-1.28,3.26-1.88,.35-.18,.69-.37,1.03-.54,17-8.77,37.51-10.56,56.8-3.27,11.44,4.33,21.08,11.33,28.46,20.02,.39,.45,.78,.91,1.13,1.37,1.91,2.35,3.64,4.8,5.21,7.35,.29,.48,.58,.97,.87,1.46,2.92,5.01,5.21,10.38,6.81,15.96,.11,.38,.21,.76,.31,1.13,1.29,4.81,2.08,9.77,2.31,14.79,.09,1.73,.11,3.46,.07,5.21Z"/>
        <path class="cls-2" d="M289.05,86.39s-32.14,2.48-38.73-9.21c-6.58-11.7-13.28-14.63-23.77-13.39-10.48,1.24-23.67,9.67-36.4,6.26-12.73-3.42-36.93-16.74-36.93-16.74-2.08,6.43-2.45,18.46-2.45,18.46,0,0,5.68,20.17,21.63,21.39,15.96,1.23,51.89,6.8,75.5,13.73,23.61,6.92,30.07,4.87,30.07,4.87,9.08-12.67,11.08-25.38,11.08-25.38Zm-114.93,.62c-1.66-4.12,8.95-4.62,11.03-1.63,2.07,2.98-7.52,10.37-11.03,1.63Zm44.96-18.84c9.94-4.05,27.41,3.22,25.75,9.74-1.66,6.52-33.43-6.61-25.75-9.74Zm20.01,33.4c-.28-5.8,6.78-2.04,8.43,.99,1.65,3.03-8.21,3.7-8.43-.99Zm30.88-.14c.19-3.14,4.64-3.25,4.57,.12-.08,3.38-4.66,1.48-4.57-.12Z"/>
        <path class="cls-7" d="M290.62,73.51s-23.04-14.44-41.26-18.13c-18.24-3.69-38.37,7.75-61.69,3.74-12.07-2.08-23.31-8.84-31.32-14.87,1.93-4.54,4.3-8.79,7.02-12.7,4.25,4.26,16.01,15.35,27.01,19.35,13.73,4.99,26.39-.44,49.52,.89,19.8,1.14,44.1,13.09,50.66,16.5,.09,1.73,.11,3.46,.06,5.21Z"/>
        <path class="cls-7" d="M178.9,108.54c-2.66,1.84-9.18-.17-8.62-1.46,1.08-2.44,11.27-.39,8.62,1.46Zm5.04-3.8c.98-1.43,6.91-.38,6.56,.53-.35,.9-7.46,.76-6.56-.53Zm66.32,18.68c1.96-2.2,12.47,2,11.92,4.51-.55,2.51-13.88-2.3-11.92-4.51Zm-48.7-16.82c-26.36-5.21-40.97-10.18-47.09-12.56,2.31,6.83,5.66,13.28,9.96,19.09,11.2,.17,22.07-9.75,52.16-.45,18.11,5.61,32.59,13.09,41.26,18.17,2.29-1.43,4.51-3,6.63-4.7-11.07-4.63-35.86-14.21-62.92-19.55Z"/>
        <path class="cls-1" d="M188.13,37.24c-.53,2.54,9.65,7.25,11.6,4.38,1.95-2.87-10.5-9.67-11.6-4.38Z"/>
        <path class="cls-1" d="M191.61,45.56c.42,2.01,2.77,2.05,3.05,1.15,.28-.89-3.48-3.17-3.05-1.15Z"/>
        <path class="cls-1" d="M250.24,70.93c2.83-2.87,4.13-1.24,4.78,.26,.65,1.5-5.66,.64-4.78-.26Z"/>
        <path class="cls-1" d="M251.36,47.41c2.83-2.87,4.13-1.24,4.78,.26,.65,1.5-5.66,.64-4.78-.26Z"/>
        <path class="cls-1" d="M212.71,123.06c2.83-2.87,4.13-1.24,4.78,.26,.65,1.5-5.66,.64-4.78-.26Z"/>
        <path class="cls-1" d="M263.73,80.39c.34,1.45,2.87,1.73,2.71,.07s-3.28-2.54-2.71-.07Z"/>
        <path class="cls-1" d="M211.16,20.52c.34,1.46,2.87,1.73,2.71,.07s-3.28-2.54-2.71-.07Z"/>
        <path class="cls-7" d="M260.04,115.49c1.1,.3,5.04,2.96,4.85,5.29-.19,2.33-9.94,.3-9.58-1.82,.35-2.12,3.21-3.89,4.74-3.46Z"/>
        <path class="cls-7" d="M262.5,47.33c1.1,.3,5.04,2.96,4.85,5.29-.19,2.33-9.94,.3-9.58-1.82,.35-2.12,3.21-3.89,4.74-3.46Z"/>
        <path class="cls-7" d="M235.28,19.07c.27,1.11-.12,5.84-2.24,6.81-2.13,.97-5.12-8.52-3.09-9.25s4.96,.9,5.34,2.44Z"/>
        <g class="cls-5">
          <path class="cls-3" d="M250.59,36.33c.29-1.08,.33-2.24,.11-3.34-.04-.18-.08-.36-.18-.51-.2-.29-.59-.38-.94-.35-.85,.06-1.61,.74-1.84,1.56-.23,.82,.02,1.75,.57,2.4,.3,.36,.72,.65,1.19,.69,.47,.03,.98-.26,1.07-.72-.09-.12-.32-.08-.36,.07l.38,.2Z"/>
          <path class="cls-3" d="M267.01,42.75c.12-.63-.11-1.32-.59-1.75-.61,.21-1.17,.66-1.33,1.28-.16,.62,.2,1.38,.83,1.5,.63,.11,1.27-.68,.91-1.22l.18,.19Z"/>
          <path class="cls-3" d="M265.11,36.96c-.06-.21-.15-.41-.27-.59-.01-.02-.03-.05-.06-.05-.03,0-.06,0-.08,.01-.2,.11-.22,.46-.45,.47-.04,0-.09,0-.12,.02-.05,.04-.02,.13,.02,.18,.24,.26,.73,.2,.91-.11,0,.03,.01,.07,.02,.1l.02-.02Z"/>
          <path class="cls-3" d="M260.55,31.51c-.11-.39-.28-.77-.51-1.12-.03-.04-.06-.09-.11-.1-.05-.02-.11,0-.15,.03-.37,.21-.42,.87-.85,.89-.08,0-.16-.02-.22,.03-.1,.07-.04,.24,.05,.33,.46,.49,1.38,.37,1.71-.21,.01,.06,.02,.12,.03,.18l.05-.04Z"/>
          <path class="cls-3" d="M271.64,28.8c-.11-.39-.28-.77-.51-1.12-.03-.04-.06-.09-.11-.1-.05-.02-.11,0-.15,.03-.37,.21-.42,.87-.85,.89-.08,0-.16-.02-.22,.03-.1,.07-.04,.24,.05,.33,.46,.49,1.38,.37,1.71-.21,.01,.06,.02,.12,.03,.18l.05-.04Z"/>
          <path class="cls-3" d="M266.35,33.28c.05-.3-.05-.61-.26-.83-.1,.08-.21,.17-.27,.29-.06,.12-.07,.28,.02,.38,.12,.14,.34,.11,.52,.07-.03,.04-.05,.09-.08,.13l.08-.04Z"/>
          <path class="cls-3" d="M264.37,32.43c-.02-.08-.05-.17-.12-.21-.07-.05-.15-.05-.23-.05-.22,0-.44-.02-.66-.06,.23,.29,.47,.57,.7,.86,.02,.02,.04,.05,.05,.07,.03,.1-.08,.18-.11,.28-.04,.14,.09,.28,.22,.35,.93,.51,.29-.79,.16-1.23Z"/>
          <path class="cls-3" d="M253.84,28.49c-.02-.08-.05-.17-.12-.21-.07-.05-.15-.05-.23-.05-.22,0-.44-.02-.66-.06,.23,.29,.47,.57,.7,.86,.02,.02,.04,.05,.05,.07,.03,.1-.08,.18-.11,.28-.04,.14,.09,.28,.22,.35,.93,.51,.29-.79,.16-1.23Z"/>
          <path class="cls-3" d="M267.41,25.95l-.19-.26c-.17,.14-.27,.38-.18,.58,.09,.2,.41,.26,.52,.07,.07-.12,.12-.32,.24-.26l-.38-.13Z"/>
          <path class="cls-3" d="M251.21,25.71c-.01,.3-.4,.52-.67,.36-.26-.15-.26-.6,0-.76,.26-.16,.65,.05,.67,.36v.04Z"/>
          <path class="cls-3" d="M255.07,28.91c.19,.15,.4,.39,.28,.6-.12,.2-.41,.16-.63,.08-.09-.03-.2-.08-.23-.17-.05-.24,.44-.28,.44-.52,.06-.04,.14,.07,.08,.11l.06-.1Z"/>
          <path class="cls-3" d="M270.47,45.93c-.07-.35-.24-.71-.56-.86-.32-.15-.79,.05-.81,.4,0,.1,.03,.21,.09,.29,.04,.05,.09,.09,.14,.13,.19,.14,.43,.26,.66,.23,.24-.03,.46-.25,.42-.49l.06,.29Z"/>
          <path class="cls-3" d="M277.91,49.95c-.1,.02-.21,.05-.28,.13-.07,.08-.08,.19-.13,.29-.11,.22-.37,.32-.53,.51-.27,.33-.15,.82-.01,1.23,.03,.09,.08,.2,.18,.22,.07,.02,.14-.02,.21-.05,.48-.19,.79,.27,1.23,.21,.35-.04,.83-.46,.94-.79,.31-.99-.67-1.96-1.6-1.75Z"/>
          <path class="cls-3" d="M266.55,36.91c.07,.06,.11,.15,.13,.23-.23,0-.42-.18-.56-.37-.08-.1-.16-.24-.09-.35,.05-.08,.14-.1,.22-.16,.14-.11,.21-.36,.39-.34,.1,.01,.17,.12,.17,.22,0,.1-.04,.2-.08,.29-.09,.2-.19,.4-.28,.61l.11-.13Z"/>
          <path class="cls-3" d="M264.06,39.41c0-.19-.31-.22-.42-.06-.11,.15-.07,.36-.03,.55,.26-.02,.49-.22,.56-.47l-.11-.02Z"/>
          <path class="cls-3" d="M263.49,36.67c-.02-.09-.05-.18-.1-.25-.06-.07-.15-.12-.24-.09-.14,.05-.16,.25-.27,.35-.11,.11-.3,.12-.37,.25-.06,.14,.06,.3,.21,.33,.15,.03,.3-.04,.43-.11,.12-.07,.23-.14,.3-.26,.06-.12,.06-.28-.05-.36l.1,.15Z"/>
          <path class="cls-3" d="M263.09,35.52c-.01,.09-.11,.14-.2,.13-.09-.01-.16-.08-.2-.16-.03-.04-.05-.09-.05-.15,0-.12,.11-.23,.23-.22s.22,.13,.21,.25c0,.12-.12,.22-.24,.23l.25-.08Z"/>
          <path class="cls-3" d="M250.63,37.95c-.01,.09-.11,.14-.2,.13-.09-.01-.16-.08-.2-.16-.03-.04-.05-.09-.05-.15,0-.12,.11-.23,.23-.22,.12,0,.22,.13,.21,.25,0,.12-.12,.22-.24,.23l.25-.08Z"/>
          <path class="cls-3" d="M264.19,35.08c.19-.03,.27-.31,.13-.43-.1,.02-.19,.06-.26,.13s-.09,.19-.03,.27c.06,.08,.2,.08,.24-.01l-.09,.04Z"/>
          <path class="cls-3" d="M251.54,21.42c.19-.03,.27-.31,.13-.43-.1,.02-.19,.06-.26,.13-.06,.07-.09,.19-.03,.27s.2,.08,.24-.01l-.09,.04Z"/>
          <path class="cls-3" d="M247.61,30.19c.11-.2,.11-.45,.02-.65-.16,.09-.32,.18-.48,.28-.08,.04-.15,.09-.2,.17-.08,.15,.02,.36,.18,.4s.35-.04,.44-.18h.04Z"/>
          <path class="cls-3" d="M252.72,32.08c.19,.28,.38,.55,.57,.83-.09,.15-.31,.04-.44-.07-.13-.11-.26-.24-.3-.41-.04-.17,.06-.38,.23-.38l-.06,.04Z"/>
          <path class="cls-3" d="M276.02,40.22c.18-.16,.06-.51-.18-.57-.24-.06-.49,.12-.58,.34-.04,.1-.05,.21,0,.31,.07,.15,.26,.2,.42,.16s.29-.14,.42-.24h-.08Z"/>
          <path class="cls-3" d="M254.07,27.88c.17-.16,.22-.42,.13-.63-.16,.01-.32,.08-.44,.2-.15,.15-.22,.42-.08,.59,.14,.17,.48,.09,.48-.13l-.09-.03Z"/>
          <path class="cls-3" d="M253.43,30.13c0,.15-.12,.3-.27,.32-.1-.14-.19-.28-.29-.42,.13-.2,.46-.22,.61-.03l-.04,.13Z"/>
          <path class="cls-3" d="M272,42.67l-.47,.64c-.04,.06-.09,.13-.1,.2-.01,.08,.02,.16,.05,.23,.11,.26,.28,.57,.57,.56,.31-.02,.43-.39,.56-.67,.25-.52,1.58-1.37,1.09-2.04-.53-.72-1.4,.7-1.69,1.09Z"/>
          <path class="cls-3" d="M274.63,39.03s.1,.09,.15,.14c-.14,.07-.29,.13-.45,.13-.16,0-.33-.09-.37-.24-.04-.15,.11-.33,.26-.28,.15,.05,.29,.14,.38,.27h.02Z"/>
          <path class="cls-3" d="M262.2,38c-.02,.13-.12,.24-.25,.27s-.27-.02-.35-.12c-.05-.07-.07-.19,.01-.23,.03-.02,.07-.02,.11-.01,.16,.01,.33,.02,.49,.04,0,.03-.01,.06-.02,.08v-.02Z"/>
          <path class="cls-3" d="M259.74,38.74c-.15-.06-.31,.07-.41,.19-.11,.12-.24,.27-.4,.24-.04,0-.09-.03-.11-.07-.05-.1,.08-.19,.15-.28,.05-.07,.07-.17,.11-.25,.09-.2,.31-.33,.52-.32,.1,.06,.16,.18,.14,.3-.02,.12-.11,.22-.22,.25l.22-.06Z"/>
          <path class="cls-3" d="M259.31,37.17c-.02-.06-.05-.11-.07-.17-.1,0-.21,.06-.23,.17-.02,.1,.05,.22,.15,.22,.1,0,.2-.1,.16-.2v-.02Z"/>
          <path class="cls-3" d="M254.94,36.81c-.02-.06-.05-.11-.07-.17-.1,0-.21,.07-.23,.17-.02,.1,.05,.22,.15,.22,.1,0,.2-.1,.16-.2v-.02Z"/>
          <path class="cls-3" d="M265.41,34.47c-.02,.12,.15,.19,.26,.16s.21-.13,.32-.18c.12-.05,.25-.05,.37,.01,.07,.03,.13,.09,.13,.16,0,.05-.02,.09-.05,.14-.12,.21-.27,.41-.49,.52-.21,.11-.5,.12-.68-.04-.13-.11-.19-.29-.16-.45,.03-.16,.16-.31,.32-.36l-.03,.03Z"/>
          <path class="cls-3" d="M249.05,14.65c-.02,.12,.15,.19,.26,.16,.12-.04,.21-.13,.32-.18,.12-.05,.25-.05,.37,.01,.07,.03,.13,.09,.13,.16,0,.05-.02,.1-.05,.14-.12,.21-.27,.41-.49,.52-.21,.11-.5,.12-.68-.04-.13-.11-.19-.29-.16-.45s.16-.31,.32-.36l-.03,.03Z"/>
          <path class="cls-3" d="M266.66,31.46c.06-.14-.03-.32-.17-.37-.14-.06-.31,0-.42,.09-.05,.04-.09,.12-.06,.17,.02,.04,.07,.05,.12,.06,.18,.03,.37,.07,.55,.1l-.02-.05Z"/>
          <path class="cls-3" d="M248.94,20.85c.38-.1,.72-.35,.91-.69,.03-.06,.06-.13,.04-.19-.05-.14-.25-.11-.4-.11-.26,0-.47-.23-.73-.23-.21,0-.39,.13-.56,.26-.24,.18-.5,.5-.34,.75,.09,.13,.26,.17,.41,.19,.33,.04,.66,.03,.98-.04l-.33,.08Z"/>
          <path class="cls-3" d="M260,25.22c.24,.04,.34-.28,.36-.52,0-.15,0-.32-.11-.42-.16-.13-.38-.02-.55,.09-.15,.1-.29,.19-.44,.29-.06,.04-.14,.1-.14,.17,0,.07,.04,.13,.08,.18,.22,.26,.5,.48,.81,.63v-.43Z"/>
          <path class="cls-3" d="M257.41,32.51c2.05,.55,2.47-1.91,.88-2.78-1.67-.91-2.66,2.3-.88,2.78Z"/>
          <path class="cls-3" d="M266.66,39.87c-.16,.27-.6,.29-.79,.04,.15-.19,.32-.38,.55-.45,.23-.07,.53,.05,.56,.29-.08,.12-.16,.23-.23,.35l-.09-.22Z"/>
          <path class="cls-3" d="M260.96,43.78c-.07-.09-.14-.18-.2-.28-.31,.26-.67,.46-1.05,.58-.19,.06-.4,.1-.57,.2-.18,.1-.33,.27-.33,.48,0,.38,.47,.57,.85,.55,.48-.03,.96-.24,1.24-.63,.28-.39,.31-.96,.02-1.34-.13,.09-.26,.17-.39,.26l.45,.18Z"/>
          <path class="cls-3" d="M258.71,41.2c.09-.13-.02-.19-.18-.15-.15,.05-.32,.16-.47,.27-.34,.24-.68,.48-1.03,.72-.19,.14-.42,.31-.45,.45-.03,.12,.11,.16,.28,.11,.17-.05,.35-.15,.53-.26,.58-.35,1.25-.83,1.38-1.25-.11,.02-.22,.05-.33,.07l.27,.03Z"/>
          <path class="cls-3" d="M257.61,39.18c0,.07-.07,.12-.14,.12s-.13-.05-.18-.1c-.04-.04-.08-.09-.09-.14-.03-.11,.03-.23,.13-.28,.1-.05,.23-.03,.32,.03,.04,.03,.08,.08,.09,.13,0,.05-.03,.12-.08,.13l-.05,.12Z"/>
          <path class="cls-3" d="M261.64,29.01c.22-.22,.41-.47,.58-.73-.04-.07-.13-.1-.22-.11-.46-.05-.91,.37-.89,.83,0,.07,.02,.14,.06,.19,.06,.06,.17,.06,.25,.02,.08-.04,.14-.11,.2-.19h.01Z"/>
          <path class="cls-3" d="M262.95,33.9c-.03-.06-.06-.12-.09-.18-.1,.03-.2,.07-.25,.16-.05,.09,.01,.23,.11,.22,.04,0,.07-.03,.1-.06,.09-.08,.18-.16,.27-.24l-.15,.1Z"/>
          <path class="cls-3" d="M248.39,26.57c0-.16-.02-.32-.09-.47s-.22-.26-.38-.24c-.08,0-.15,.05-.21,.11-.17,.17-.16,.48,.02,.64,.18,.16,.49,.13,.64-.06l.02,.02Z"/>
          <path class="cls-3" d="M253.94,20.5c.16,.17,.04,.5-.19,.52-.11-.06-.21-.15-.28-.25,.09-.11,.22-.19,.36-.21l.12-.06Z"/>
          <path class="cls-3" d="M255.88,24.06c.08-.12-.17-.23-.25-.12s0,.28,.1,.37c.11-.06,.18-.2,.15-.33v.07Z"/>
          <path class="cls-3" d="M267.71,44.18c-.06-.09-.13-.17-.19-.26-.08,.03-.15,.08-.2,.14,.04,.16,.23,.26,.38,.2l.02-.08Z"/>
          <path class="cls-3" d="M295.39,41.99c-.06-.09-.13-.17-.19-.26-.08,.03-.15,.08-.2,.14,.04,.16,.23,.26,.38,.2l.02-.08Z"/>
          <path class="cls-3" d="M281.28,39.74c.29,.25,.44,.65,.38,1.03,0,.05-.02,.1-.05,.13-.05,.05-.14,.04-.21,.03-.42-.08-.92-.24-.99-.66-.06-.36,.37-.7,.71-.56,.03,.11,.07,.23,.1,.34l.06-.29Z"/>
          <path class="cls-3" d="M274.91,73.84c.12-.63-.11-1.32-.59-1.75-.61,.21-1.17,.66-1.33,1.28-.16,.62,.2,1.38,.83,1.5s1.27-.68,.91-1.22l.18,.19Z"/>
          <path class="cls-3" d="M273,68.05c-.06-.21-.15-.41-.27-.59-.01-.02-.03-.05-.06-.05-.03,0-.06,0-.08,.01-.2,.11-.22,.46-.45,.47-.04,0-.09,0-.12,.02-.05,.04-.02,.13,.02,.18,.24,.26,.73,.2,.91-.11,0,.03,.01,.07,.02,.1l.02-.02Z"/>
          <path class="cls-3" d="M279.53,59.89c-.11-.39-.28-.77-.51-1.12-.03-.04-.06-.09-.11-.1-.05-.02-.11,0-.15,.03-.37,.21-.42,.87-.85,.89-.08,0-.16-.02-.22,.03-.1,.07-.04,.24,.05,.33,.46,.49,1.38,.37,1.71-.21,.01,.06,.02,.12,.03,.18l.05-.04Z"/>
          <path class="cls-3" d="M274.25,64.37c.05-.3-.05-.61-.26-.83-.1,.08-.21,.17-.27,.29-.06,.12-.07,.28,.02,.38,.12,.14,.34,.11,.52,.07-.03,.04-.05,.09-.08,.13l.08-.04Z"/>
          <path class="cls-3" d="M272.26,63.52c-.02-.08-.05-.17-.12-.21-.07-.05-.15-.05-.23-.05-.22,0-.44-.02-.66-.06,.23,.29,.47,.57,.7,.86,.02,.02,.04,.05,.05,.07,.03,.1-.08,.18-.11,.28-.04,.14,.09,.28,.22,.35,.93,.51,.29-.79,.16-1.23Z"/>
          <path class="cls-3" d="M275.3,57.04c-.06-.09-.13-.17-.19-.26-.17,.14-.27,.38-.18,.58,.09,.2,.41,.26,.52,.07,.07-.12,.12-.32,.24-.26l-.38-.13Z"/>
          <path class="cls-3" d="M278.37,77.02c-.07-.35-.24-.71-.56-.86-.32-.15-.79,.05-.81,.4,0,.1,.03,.21,.09,.29,.04,.05,.09,.09,.14,.13,.19,.14,.43,.26,.66,.23,.24-.03,.46-.25,.42-.49l.06,.29Z"/>
          <path class="cls-3" d="M274.45,68c.07,.06,.11,.15,.13,.23-.23,0-.42-.18-.56-.37-.08-.1-.16-.24-.09-.35,.05-.08,.14-.1,.22-.16,.14-.11,.21-.36,.39-.34,.1,.01,.17,.12,.17,.22,0,.1-.04,.2-.08,.29-.09,.2-.19,.4-.28,.61l.11-.13Z"/>
          <path class="cls-3" d="M272.09,66.17c.19-.03,.27-.31,.13-.43-.1,.02-.19,.06-.26,.13-.06,.07-.09,.19-.03,.27,.06,.08,.2,.08,.24-.01l-.09,.04Z"/>
          <path class="cls-3" d="M283.91,71.31c.18-.16,.06-.51-.18-.57-.24-.06-.49,.12-.58,.34-.04,.1-.05,.21,0,.31,.07,.15,.26,.2,.42,.16,.16-.04,.29-.14,.42-.24h-.08Z"/>
          <path class="cls-3" d="M279.89,73.76l-.47,.64c-.04,.06-.09,.13-.1,.2-.01,.08,.02,.16,.05,.23,.11,.26,.28,.57,.57,.56,.31-.02,.43-.4,.56-.67,.25-.52,1.58-1.37,1.09-2.04-.53-.72-1.4,.7-1.69,1.09Z"/>
          <path class="cls-3" d="M282.53,70.12s.1,.09,.15,.14c-.14,.07-.29,.13-.45,.13-.16,0-.33-.09-.37-.24-.04-.15,.11-.33,.26-.28,.15,.05,.29,.14,.38,.27h.02Z"/>
          <path class="cls-3" d="M273.31,65.56c-.02,.12,.15,.19,.26,.16s.21-.13,.32-.18c.12-.05,.25-.05,.37,.01,.07,.03,.13,.09,.13,.16,0,.05-.02,.09-.05,.14-.12,.21-.27,.41-.49,.52-.21,.11-.5,.12-.68-.04-.13-.11-.19-.29-.16-.45,.03-.16,.16-.31,.32-.36l-.03,.03Z"/>
          <path class="cls-3" d="M274.55,62.55c.06-.14-.03-.32-.17-.37-.14-.06-.31,0-.42,.09-.05,.04-.09,.12-.06,.17,.02,.04,.07,.05,.12,.06,.18,.03,.37,.07,.55,.1l-.02-.05Z"/>
          <path class="cls-3" d="M274.56,70.96c-.16,.27-.6,.29-.79,.04,.15-.19,.32-.38,.55-.45,.23-.07,.53,.05,.56,.29-.08,.12-.16,.23-.23,.35l-.09-.22Z"/>
          <path class="cls-3" d="M275.6,75.27c-.06-.09-.13-.17-.19-.26-.08,.03-.15,.08-.2,.14,.04,.16,.23,.26,.38,.2l.02-.08Z"/>
          <path class="cls-3" d="M289.17,70.83c.29,.25,.44,.65,.38,1.03,0,.05-.02,.1-.05,.13-.05,.05-.14,.04-.21,.03-.42-.08-.92-.24-.99-.66-.06-.36,.37-.7,.71-.56,.03,.11,.07,.23,.1,.34l.06-.29Z"/>
          <path class="cls-3" d="M267.34,59.93c.29,.25,.44,.65,.38,1.03,0,.05-.02,.1-.05,.13-.05,.05-.14,.04-.21,.03-.42-.08-.92-.24-.99-.66-.06-.36,.37-.7,.71-.56,.03,.11,.07,.23,.1,.34l.06-.29Z"/>
        </g>
        <g class="cls-6">
          <path class="cls-9" d="M185.78,13.75c-.87-.38-1.73-.76-2.61-1.14,.39-.26,.78-.49,1.17-.72,.63,.27,1.26,.54,1.89,.82l1.37,.61c19.54,8.54,40.18,14.17,61.37,16.71,2.31,.28,4.64,.53,6.97,.76,5.62,.58,11.44,1.19,17.08,2.33,2.56,.52,4.97,1.12,7.24,1.83,.29,.48,.58,.97,.87,1.46-2.57-.85-5.35-1.58-8.33-2.19-5.6-1.12-11.37-1.73-16.97-2.3-2.34-.25-4.66-.48-6.99-.76-21.28-2.56-42.04-8.21-61.68-16.81l-1.37-.6Z"/>
          <path class="cls-9" d="M288.24,53.51c-5.54-.37-10.88-2.28-16.06-4.15-1.03-.37-2.07-.74-3.1-1.1-13.99-4.87-27.58-7.1-40.4-6.67-2.79,.1-5.62,.33-8.36,.54-4.25,.35-8.63,.7-12.97,.57-12.93-.37-25.64-4.98-35.8-12.99-1.52-1.19-2.84-2.39-3.97-3.58,.24-.29,.48-.58,.74-.87,1.1,1.19,2.4,2.37,3.92,3.57,9.97,7.85,22.44,12.38,35.14,12.74,4.27,.12,8.63-.22,12.84-.56,2.75-.22,5.61-.45,8.42-.54,12.95-.45,26.68,1.82,40.8,6.72,1.03,.36,2.07,.73,3.11,1.11,4.99,1.79,10.11,3.63,15.36,4.07,.11,.38,.21,.76,.31,1.13Z"/>
        </g>
        <g class="cls-6">
          <path class="cls-9" d="M282.38,104.54c-.2,.39-.42,.79-.64,1.17-.75,.06-1.51,.11-2.25,.15-5.45,.24-12.73-.58-16.53-5.85-.78-1.09-1.37-2.31-1.96-3.51-1.02-2.12-1.99-4.12-3.85-5.2-1.52-.87-3.33-.89-4.57-.74-3.05,.35-5.74,1.79-8.6,3.3-2.3,1.22-4.67,2.49-7.25,3.14-3.87,.96-7.98,.45-11.62,0l-.42-.06c-8.28-1.02-16.56-2.05-24.85-3.11-1.48-.19-3.17-.4-4.58-1.28-1.36-.83-2.6-2.58-2.1-4.44,.27-1,.94-1.72,1.6-2.42,.42-.44,.81-.85,1.09-1.33,1.01-1.71,.27-3.99-.94-5.26-1.19-1.26-3.02-2.1-5.45-2.52-5.17-.88-10.5,.3-15.64,1.44-4.51,1-9.17,2.03-13.86,1.74-3.08-.2-6.15-1.01-8.97-2.35-.05-.43-.07-.87-.1-1.29,2.85,1.44,5.99,2.31,9.15,2.52,4.52,.29,9.1-.73,13.54-1.71,5.25-1.17,10.68-2.37,16.06-1.45,2.67,.45,4.72,1.42,6.08,2.84,1.54,1.61,2.4,4.39,1.1,6.61-.35,.57-.8,1.06-1.24,1.52-.58,.63-1.13,1.21-1.33,1.93-.34,1.25,.56,2.55,1.61,3.2,1.21,.75,2.76,.96,4.12,1.12,8.28,1.07,16.56,2.09,24.86,3.11l.4,.06c3.71,.46,7.55,.93,11.21,.02,2.44-.61,4.75-1.84,6.99-3.03,2.82-1.51,5.74-3.06,9-3.43,2.03-.24,3.84,.07,5.26,.89,2.17,1.25,3.26,3.49,4.32,5.67,.55,1.15,1.12,2.34,1.84,3.34,3.51,4.88,10.41,5.62,15.56,5.39,.98-.05,1.97-.11,2.94-.19Z"/>
        </g>
        <g class="cls-6">
          <path class="cls-9" d="M242.2,138.14c-.39,.13-.76,.26-1.16,.37-1.1-1.38-1.98-2.93-2.82-4.45-.21-.38-.44-.76-.65-1.15-4.32-7.5-9.83-12.99-15.97-15.91-7.07-3.35-15.19-3.56-22.92-3.3-9.11,.31-19.46,1.43-27.18,7.26l-.67-.89c7.96-6.03,18.53-7.17,27.82-7.5,7.87-.27,16.16-.05,23.44,3.42,6.34,3.01,12.04,8.68,16.46,16.36,.21,.38,.44,.78,.65,1.16,.9,1.6,1.82,3.24,3,4.63Z"/>
        </g>
        <g class="cls-6">
          <path class="cls-9" d="M275.03,27.61c-.63-.12-1.26-.25-1.87-.37-8.05-1.65-16.27-2.44-24.47-2.34-.99,.01-1.97,.02-2.9-.35-2.03-.8-2.79-2.84-3.51-4.82-.31-.87-.64-1.75-1.07-2.49-1.79-3.15-5.65-4.23-8.65-4.18-2.99,.03-5.94,.97-8.81,1.85l-1.42,.44c-7.92,2.4-14.3,3.12-20.09,2.27-5.97-.9-11.2-3.65-14.65-7.6,.35-.18,.69-.37,1.03-.54,3.26,3.64,8.18,6.19,13.78,7.02,5.62,.83,11.86,.12,19.61-2.22l1.4-.44c2.94-.92,5.98-1.87,9.14-1.91,3.32-.04,7.62,1.18,9.64,4.74,.47,.83,.81,1.76,1.15,2.66,.66,1.83,1.3,3.55,2.87,4.17,.72,.29,1.6,.28,2.43,.27,8.33-.1,16.64,.69,24.76,2.36,.17,.03,.34,.07,.51,.1,.39,.45,.78,.91,1.13,1.37Z"/>
        </g>
      </g>
    </g>
  </g>
</svg>